<svg width="668" height="830" viewBox="0 0 668 830" fill="none" xmlns="http://www.w3.org/2000/svg">
<g filter="url(#filter0_d_62_3645)">
<path d="M252.5 0C459.883 0 628 168.117 628 375.5C628 582.883 459.883 751 252.5 751C45.1171 751 -123 582.883 -123 375.5C-123 168.117 45.1171 0 252.5 0ZM314.05 284.247L138.002 284.249C129.209 284.249 122.446 286.278 117.71 290.336C113.314 294.395 111.114 299.637 111.114 306.063C111.114 319.592 118.724 328.554 133.944 332.951C156.267 339.378 173.18 344.959 184.68 349.694C196.517 354.429 206.833 360.518 215.627 367.959C225.774 376.753 233.384 387.746 238.457 400.937C243.53 413.79 246.069 427.658 246.069 442.539C246.068 463.509 241.332 482.28 231.862 498.853C222.392 515.088 209.37 527.772 192.796 536.905C176.561 546.037 158.634 550.604 139.017 550.604H28.8192C80.8181 616.935 161.681 659.557 252.5 659.557C273.654 659.557 294.267 657.24 314.102 652.854L314.865 284.108H314.05V284.247ZM401.114 284.108L400.424 618.044C482.066 568.145 536.557 478.188 536.557 375.5C536.557 343.527 531.273 312.788 521.534 284.108H401.114ZM252.5 91.443C95.6197 91.443 -31.557 218.62 -31.557 375.5C-31.557 407.473 -26.2734 438.212 -16.5337 466.892H128.871C139.017 466.892 146.628 464.862 151.701 460.804C157.113 456.407 159.82 450.995 159.82 444.569C159.82 438.143 157.451 432.73 152.716 428.333C148.319 423.599 142.739 420.047 135.975 417.68C109.255 408.886 90.4807 402.121 79.6574 397.386C69.1726 392.651 60.0404 386.224 52.2613 378.107C33.9971 359.504 24.8653 335.32 24.8653 305.555C24.8654 279.174 31.7992 256.85 45.6664 238.586C59.8718 219.984 78.8124 208.316 102.488 203.581C109.252 202.228 117.033 201.381 125.827 201.042C134.959 200.704 144.937 200.535 155.76 200.535L236.228 200.533V200.396H476.181C424.182 134.065 343.319 91.443 252.5 91.443Z" fill="#9E1F19" fill-opacity="0.5" shape-rendering="crispEdges"/>
</g>
<defs>
<filter id="filter0_d_62_3645" x="-162.037" y="0" width="829.074" height="829.074" filterUnits="userSpaceOnUse" color-interpolation-filters="sRGB">
<feFlood flood-opacity="0" result="BackgroundImageFix"/>
<feColorMatrix in="SourceAlpha" type="matrix" values="0 0 0 0 0 0 0 0 0 0 0 0 0 0 0 0 0 0 127 0" result="hardAlpha"/>
<feOffset dy="39.0371"/>
<feGaussianBlur stdDeviation="19.5186"/>
<feComposite in2="hardAlpha" operator="out"/>
<feColorMatrix type="matrix" values="0 0 0 0 0 0 0 0 0 0 0 0 0 0 0 0 0 0 0.25 0"/>
<feBlend mode="normal" in2="BackgroundImageFix" result="effect1_dropShadow_62_3645"/>
<feBlend mode="normal" in="SourceGraphic" in2="effect1_dropShadow_62_3645" result="shape"/>
</filter>
</defs>
</svg>
