<svg width="85" height="32" viewBox="0 0 85 32" fill="none" xmlns="http://www.w3.org/2000/svg">
<g clip-path="url(#clip0_41_477)">
<mask id="mask0_41_477" style="mask-type:luminance" maskUnits="userSpaceOnUse" x="0" y="0" width="85" height="32">
<path d="M85 0H0V32H85V0Z" fill="white"/>
</mask>
<g mask="url(#mask0_41_477)">
<path fill-rule="evenodd" clip-rule="evenodd" d="M15.7594 31.6953C20.4531 31.6953 24.67 29.6528 27.5705 26.4077C26.2212 25.2345 24.1879 25.1632 22.7514 26.3228L22.477 26.5444C19.847 28.6676 16.0147 28.3541 13.7644 25.8315C12.537 24.4557 10.4351 24.3153 9.03577 25.5155L5.87181 28.2293C8.58171 30.3983 12.0192 31.6953 15.7594 31.6953ZM20.8952 24.0213C23.4003 21.9989 26.9214 22.0715 29.3307 24.0247C30.7708 21.6374 31.5994 18.8394 31.5994 15.8476C31.5994 12.5233 30.5764 9.4381 28.828 6.8899C27.701 6.64977 26.4794 6.93023 25.5521 7.7524L25.2881 7.9864C22.7588 10.2289 18.9162 10.0926 16.5519 7.67663C15.2623 6.35897 13.1562 6.3157 11.8137 7.5793L8.13184 11.0449L6.10632 8.8909L9.78828 5.4253C12.303 3.05831 16.2484 3.13937 18.664 5.60767C19.9261 6.8974 21.9774 6.97013 23.3277 5.77303L23.5916 5.53903C24.4112 4.81237 25.3595 4.3225 26.3523 4.06487C23.5461 1.53787 19.8323 0 15.7594 0C7.71843 0 1.07688 5.99447 0.0556272 13.7604C2.49799 12.5878 5.51062 13.039 7.50205 15.0793C8.75922 16.3673 10.7835 16.5032 12.2015 15.3949L14.2601 13.7858C16.8473 11.7636 20.5046 11.8615 22.98 14.0193L26.988 17.5128L25.0462 19.7426L21.0383 16.249C19.6307 15.0221 17.5511 14.9664 16.0798 16.1163L14.0213 17.7254C11.4161 19.7617 7.69692 19.5119 5.38721 17.1454C4.04407 15.7694 1.84738 15.7213 0.445483 17.0375L0 17.4556C0.333389 20.7657 1.68484 23.775 3.73631 26.1656L7.11184 23.2703C9.73313 21.0219 13.6706 21.2851 15.9697 23.8623C17.171 25.2089 19.2167 25.3763 20.6208 24.2428L20.8952 24.0213Z" fill="black"/>
<path d="M43.0088 20.9303C43.0088 24.2463 45.6106 26.4213 49.7088 26.4213C53.8433 26.4213 56.6941 24.3176 56.6941 21.0016C56.6941 18.3986 55.2328 17.0437 52.2751 16.3306L49.2101 15.5818C47.4992 15.1539 46.6442 14.3695 46.6442 13.1929C46.6442 11.5883 47.8199 10.6613 49.9227 10.6613C51.9544 10.6613 53.1304 11.7666 53.2018 13.5137H56.4096C56.3379 10.1977 53.8433 8.05832 50.0296 8.05832C46.1803 8.05832 43.4723 10.0907 43.4723 13.2998C43.4723 15.8671 44.9336 17.4003 48.0338 18.149L51.0991 18.8622C52.9166 19.3257 53.4867 20.0388 53.4867 21.2155C53.4867 22.82 52.1323 23.7828 49.7802 23.7828C47.5706 23.7828 46.2165 22.7131 46.2165 20.9303H43.0088Z" fill="black"/>
<path d="M68.6415 26.4213C72.9542 26.4213 75.8764 24.3176 76.7318 20.5737H73.5957C73.0256 22.5704 71.315 23.6401 68.7129 23.6401C65.3982 23.6401 63.4741 21.6077 63.2247 17.9351L76.6962 17.8994V16.6515C76.6962 11.4813 73.4533 8.05832 68.4994 8.05832C63.4386 8.05832 59.9814 11.8379 59.9814 17.2933C59.9814 22.7131 63.5099 26.4213 68.6415 26.4213ZM68.4994 10.8752C71.4574 10.8752 73.3464 12.8006 73.3464 15.6888H63.2961C63.7238 12.6223 65.5768 10.8752 68.4994 10.8752Z" fill="black"/>
<path d="M82.7906 4.4214C84.0022 4.4214 85.0002 3.423 85.0002 2.21069C85.0002 0.962723 84.0022 0 82.7906 0C81.5787 0 80.5806 0.962723 80.5806 2.21069C80.5806 3.423 81.5787 4.4214 82.7906 4.4214ZM81.1513 25.9934H84.5012V8.5575H81.1513V25.9934Z" fill="black"/>
</g>
</g>
<defs>
<clipPath id="clip0_41_477">
<rect width="85" height="32" fill="white"/>
</clipPath>
</defs>
</svg>
