<svg width="441" height="190" viewBox="0 0 441 190" fill="none" xmlns="http://www.w3.org/2000/svg">
<path d="M340.34 128.665C346.068 133.24 350.285 138.721 351.408 146.189C351.883 153.499 350.322 160.154 345.579 165.884C341.026 171.051 334.566 174.363 327.676 174.908C320.067 175.105 313.549 172.763 307.914 167.489C302.249 161.488 300.85 154.64 300.984 146.663C301.123 143.58 302.001 141.064 303.447 138.349C303.676 137.911 303.905 137.472 304.14 137.02C307.679 130.898 313.106 127.151 319.761 125.033C326.584 123.401 334.491 124.72 340.34 128.665Z" fill="black"/>
<path d="M91.2025 129.638C96.0568 133.853 100.338 139.604 100.995 146.189C101.49 153.669 99.8159 160.447 94.827 166.192C90.6149 170.58 85.2621 174.279 79.0177 174.447C77.9657 174.465 76.9136 174.48 75.8616 174.493C75.0858 174.519 75.0858 174.519 74.2943 174.546C68.0619 174.61 62.5232 171.906 57.9032 167.781C52.602 162.31 50.5282 155.787 50.5604 148.303C50.6752 142.754 52.582 138.666 55.8009 134.199C56.0137 133.901 56.2265 133.602 56.4458 133.295C59.5772 129.294 63.8892 126.809 68.7135 125.437C69.2236 125.282 69.2236 125.282 69.7439 125.124C77.1496 123.15 85.1595 125.029 91.2025 129.638Z" fill="black"/>
<path d="M227.72 74.1197C233.483 78.1176 237.577 83.5122 239.345 90.3884C239.472 91.9086 239.474 93.4176 239.46 94.9424C239.465 95.5371 239.465 95.5371 239.471 96.1439C239.451 102.583 236.796 108.722 232.427 113.447C226.425 119.004 219.339 120.655 211.369 120.506C208.559 120.389 206.313 119.864 203.835 118.519C203.373 118.285 202.911 118.05 202.435 117.808C196.255 114.461 191.803 109.241 189.757 102.424C188.218 95.5957 188.86 88.9394 192.398 82.8566C193.85 80.7056 195.55 78.8493 197.379 77.0146C197.634 76.7488 197.889 76.4831 198.152 76.2093C205.853 68.8514 218.947 68.7088 227.72 74.1197Z" fill="black"/>
<path d="M184.466 125.437C209.661 125.437 209.661 125.437 216.286 131.893C221.504 137.565 223.67 144.414 223.393 152.039C222.948 158.257 219.932 163.957 215.508 168.268C206.962 175.486 194.799 173.859 184.466 173.859C184.466 157.88 184.466 141.9 184.466 125.437Z" fill="black"/>
<path d="M23.0581 71.4806C48.3328 71.4806 48.3328 71.4806 55.2226 78.1603C58.9446 82.3145 61.5612 87.5208 61.796 93.1553C61.8236 93.8045 61.8236 93.8045 61.8518 94.4668C61.9148 97.4009 61.7124 100.028 60.8736 102.84C60.766 103.232 60.6584 103.625 60.5476 104.029C58.9349 109.183 55.4695 113.98 50.728 116.675C41.73 120.71 33.0713 119.903 23.0581 119.903C23.0581 103.924 23.0581 87.9442 23.0581 71.4806Z" fill="black"/>
<path d="M274.854 71.4806C278.963 71.4806 283.072 71.4806 287.306 71.4806C288.393 73.927 289.408 76.2247 290.284 78.7254C290.486 79.2978 290.687 79.8702 290.895 80.46C291.108 81.0715 291.321 81.683 291.534 82.2946C291.758 82.9334 291.981 83.5722 292.205 84.211C292.671 85.542 293.135 86.8734 293.599 88.2051C294.192 89.9071 294.788 91.6077 295.385 93.308C295.847 94.6237 296.307 95.9401 296.766 97.2568C296.985 97.8842 297.205 98.5113 297.425 99.1382C297.733 100.014 298.037 100.892 298.342 101.769C298.515 102.267 298.689 102.764 298.868 103.277C299.291 104.666 299.553 106.015 299.757 107.451C300.062 107.451 300.366 107.451 300.68 107.451C300.797 106.87 300.914 106.289 301.035 105.69C301.601 103.15 302.429 100.729 303.294 98.2768C303.459 97.803 303.624 97.3292 303.794 96.841C304.32 95.333 304.849 93.8263 305.378 92.3195C305.724 91.3279 306.07 90.3362 306.416 89.3444C307.259 86.9301 308.105 84.5168 308.951 82.1038C309.581 80.3071 310.21 78.5101 310.839 76.713C311.449 74.9688 312.06 73.2247 312.67 71.4806C316.931 71.4806 321.192 71.4806 325.583 71.4806C325.583 87.46 325.583 103.439 325.583 119.903C322.539 119.903 319.495 119.903 316.359 119.903C316.207 108.489 316.055 97.0753 315.898 85.3155C314.938 88.131 313.977 90.9464 312.987 93.8471C312.396 95.5765 311.806 97.3059 311.214 99.0352C310.231 101.914 309.248 104.792 308.267 107.671C307.799 109.045 307.329 110.419 306.86 111.792C306.641 112.433 306.422 113.075 306.204 113.717C305.903 114.602 305.6 115.487 305.297 116.372C305.128 116.868 304.959 117.363 304.785 117.874C304.369 118.981 304.369 118.981 303.908 119.442C302.588 119.476 301.279 119.484 299.959 119.471C299.587 119.468 299.215 119.466 298.832 119.464C297.911 119.459 296.99 119.451 296.068 119.442C295.932 119.031 295.796 118.619 295.655 118.196C292.014 107.213 288.296 96.2593 284.539 85.3155C284.387 96.7294 284.235 108.143 284.078 119.903C281.034 119.903 277.99 119.903 274.854 119.903C274.854 103.924 274.854 87.9442 274.854 71.4806Z" fill="black"/>
<path d="M131.288 14.9879C131.729 14.9905 132.171 14.9932 132.626 14.9959C138.384 15.1393 144.083 16.8819 148.495 20.7524C148.495 21.209 148.495 21.6656 148.495 22.1359C148.096 22.3262 147.696 22.5164 147.285 22.7124C145.722 23.4637 145.722 23.4637 144.46 24.4994C142.423 25.6747 140.701 26.1563 138.349 25.8253C137.031 25.1301 135.926 24.342 134.765 23.4095C132.212 21.3902 129.993 21.4093 126.82 21.6748C122.88 22.335 120.16 25.4828 117.518 28.2626C116.675 29.0534 116.675 29.0534 115.752 29.0534C115.952 29.2757 116.152 29.4981 116.358 29.7271C116.614 30.0184 116.871 30.3097 117.136 30.6098C117.393 30.8988 117.65 31.1877 117.914 31.4853C118.519 32.2816 118.519 32.2816 118.519 33.2039C120.672 31.3641 122.737 29.4919 124.68 27.4303C126.012 26.2287 127.056 25.8504 128.838 25.6523C131.29 25.906 132.606 27.1134 134.458 28.6499C136.633 30.323 138.553 30.6677 141.257 30.6153C143.954 30.2283 146.292 28.8711 148.293 27.0646C149.975 25.9005 151.584 26.1308 153.568 26.2864C154.092 27.2833 154.609 28.2826 155.124 29.284C155.271 29.561 155.417 29.838 155.568 30.1235C158.406 35.6823 158.688 42.3904 156.937 48.3512C156.258 50.4393 155.531 52.4768 154.49 54.4175C153.179 53.9906 151.891 53.5689 150.628 53.0124C148.305 52.169 145.658 52.1296 143.309 52.9223C142.389 53.3778 141.524 53.8706 140.655 54.4175C137.074 56.673 137.074 56.673 134.66 56.2622C133.363 55.5128 133.363 55.5128 131.893 54.4175C131.186 53.9224 130.475 53.4327 129.76 52.9475C129.421 52.7127 129.083 52.4779 128.733 52.236C126.569 50.9567 124.202 50.9194 121.748 51.1893C117.932 52.5248 115.049 55.4664 112.063 58.1068C108.394 54.6931 105.939 49.4676 105.5 44.4376C105.607 43.3495 105.607 43.3495 106.789 42.2831C108.609 41.3895 109.599 41.2545 111.602 41.5049C113.787 42.3599 115.655 43.7212 117.574 45.0537C119.6 46.3431 121.727 46.4747 124.053 46.1165C127.188 44.9278 129.968 43.2306 132.574 41.1356C134.156 39.8904 135.449 39.9895 137.427 40.1214C139.866 41.1141 141.65 42.6347 143.595 44.3583C143.891 44.616 144.186 44.8737 144.491 45.1392C145.213 45.7699 145.932 46.404 146.65 47.0388C148.342 45.881 148.342 45.881 149.331 44.1566C149.374 43.7571 149.374 43.7571 149.417 43.3495C143.08 37.3836 143.08 37.3836 134.876 35.8772C131.243 36.09 128.876 38.1209 126.062 40.2403C124.426 41.4505 123.189 41.7658 121.122 41.7625C119.055 41.3258 117.629 40.0264 116.019 38.7127C113.433 36.7613 111.055 36.6253 107.913 36.8932C106.538 37.2855 106.538 37.2855 105.607 37.8156C106.177 31.4026 109.446 25.6718 114.07 21.2767C119.157 17.1721 124.732 14.9419 131.288 14.9879Z" fill="#E63512"/>
<path d="M141.578 125.437C144.926 125.437 148.274 125.437 151.723 125.437C155.563 132.135 159.396 138.835 163.15 145.582C165.76 150.265 168.432 154.907 171.092 159.563C171.244 148.301 171.397 137.04 171.553 125.437C174.597 125.437 177.641 125.437 180.777 125.437C180.777 141.416 180.777 157.396 180.777 173.859C177.429 173.859 174.081 173.859 170.631 173.859C168.954 172.019 168.294 171.12 167.418 168.95C166.423 166.681 165.114 164.565 163.886 162.417C163.327 161.413 162.768 160.409 162.209 159.405C159.552 154.652 156.786 149.963 154.029 145.267C152.431 142.528 152.431 142.528 150.801 139.733C150.649 150.995 150.497 162.256 150.34 173.859C147.448 173.859 144.557 173.859 141.578 173.859C141.578 157.88 141.578 141.9 141.578 125.437Z" fill="black"/>
<path d="M354.175 125.437C357.523 125.437 360.871 125.437 364.32 125.437C366.626 129.472 366.626 129.472 367.43 130.879C368.831 133.332 370.233 135.783 371.638 138.234C372.103 139.046 372.568 139.858 373.033 140.67C373.462 141.42 373.892 142.17 374.322 142.919C377.484 148.445 380.578 154.007 383.689 159.563C383.842 148.301 383.994 137.04 384.151 125.437C387.194 125.437 390.238 125.437 393.374 125.437C393.374 141.416 393.374 157.396 393.374 173.859C390.026 173.859 386.678 173.859 383.228 173.859C380.47 170.395 380.47 170.395 379.751 168.579C378.559 165.79 377.052 163.205 375.523 160.591C374.881 159.487 374.249 158.377 373.618 157.267C371.387 153.345 369.113 149.449 366.824 145.561C366.575 145.137 366.326 144.713 366.07 144.276C365.745 143.726 365.745 143.726 365.414 143.164C364.698 141.89 364.052 140.579 363.398 139.272C363.246 150.686 363.094 162.1 362.937 173.859C360.045 173.859 357.154 173.859 354.175 173.859C354.175 157.88 354.175 141.9 354.175 125.437Z" fill="black"/>
<path d="M358.787 71.4806C362.135 71.4806 365.483 71.4806 368.932 71.4806C370.622 73.2906 370.959 73.9041 371.699 76.0922C372.233 77.0591 372.787 78.0154 373.357 78.9619C373.958 80.013 374.558 81.0644 375.158 82.1162C375.316 82.3934 375.475 82.6705 375.638 82.9561C378.243 87.517 380.819 92.0929 383.37 96.6845C383.614 97.1237 383.859 97.563 384.111 98.0156C384.32 98.3923 384.529 98.7689 384.744 99.157C385.9 101.171 387.107 103.155 388.301 105.146C388.453 94.0362 388.606 82.9267 388.762 71.4806C391.806 71.4806 394.85 71.4806 397.986 71.4806C397.986 87.46 397.986 103.439 397.986 119.903C394.638 119.903 391.29 119.903 387.84 119.903C387.388 119.11 386.935 118.317 386.469 117.5C383.032 111.479 379.588 105.462 376.116 99.4606C373.396 94.7556 370.706 90.0344 368.01 85.3155C367.858 96.5772 367.706 107.839 367.549 119.442C364.657 119.442 361.766 119.442 358.787 119.442C358.787 103.615 358.787 87.7874 358.787 71.4806Z" fill="black"/>
<path d="M238.884 125.437C240.095 125.335 241.193 125.307 242.4 125.35C242.726 125.357 243.051 125.363 243.387 125.369C244.192 125.386 244.997 125.41 245.801 125.437C249.541 133.954 253.166 142.514 256.713 151.113C257.043 151.913 257.373 152.712 257.703 153.512C257.865 153.904 258.027 154.296 258.193 154.7C259.272 157.311 260.365 159.915 261.468 162.516C261.61 162.852 261.752 163.188 261.899 163.534C262.563 165.101 263.228 166.668 263.898 168.232C264.243 169.047 264.243 169.047 264.595 169.878C264.897 170.585 264.897 170.585 265.205 171.306C265.631 172.476 265.631 172.476 265.631 173.859C262.435 173.859 259.239 173.859 255.947 173.859C255.175 172.045 254.407 170.229 253.641 168.412C253.421 167.895 253.201 167.379 252.974 166.847C252.766 166.352 252.558 165.857 252.344 165.348C252.151 164.891 251.957 164.435 251.758 163.964C251.335 162.791 251.335 162.791 251.335 161.408C245.4 161.408 239.465 161.408 233.35 161.408C233.197 162.169 233.045 162.93 232.888 163.714C232.59 164.536 232.271 165.35 231.935 166.158C231.75 166.608 231.564 167.059 231.373 167.523C231.178 167.987 230.984 168.452 230.784 168.931C230.588 169.404 230.393 169.878 230.191 170.365C229.708 171.531 229.223 172.695 228.738 173.859C225.39 173.859 222.042 173.859 218.592 173.859C221.429 166.677 224.351 159.535 227.331 152.411C227.629 151.697 227.928 150.983 228.226 150.27C228.377 149.909 228.528 149.549 228.683 149.177C229.889 146.291 231.084 143.401 232.276 140.509C232.636 139.637 232.996 138.764 233.357 137.891C233.884 136.613 234.411 135.335 234.936 134.057C235.423 132.873 235.911 131.69 236.399 130.508C236.544 130.154 236.689 129.8 236.838 129.436C237.432 128.003 238.02 126.732 238.884 125.437Z" fill="black"/>
<path d="M241.65 71.4806C263.89 71.4806 263.89 71.4806 268.398 75.6311C271.755 79.0108 272.518 82.1352 272.664 86.872C272.607 90.9989 271.295 94.3334 268.398 97.3058C262.83 101.735 258.218 101.456 250.874 101.456C250.874 107.544 250.874 113.631 250.874 119.903C247.83 119.903 244.786 119.903 241.65 119.903C241.65 103.924 241.65 87.9442 241.65 71.4806Z" fill="black"/>
<path d="M103.301 125.437C106.345 125.437 109.388 125.437 112.524 125.437C112.531 126.465 112.538 127.494 112.545 128.553C112.568 131.961 112.599 135.368 112.633 138.775C112.654 140.839 112.672 142.904 112.684 144.969C112.696 146.963 112.715 148.958 112.738 150.952C112.746 151.711 112.751 152.47 112.754 153.229C112.758 154.296 112.771 155.363 112.786 156.43C112.791 157.037 112.796 157.643 112.802 158.268C113.073 160.863 113.63 162.993 115.522 164.838C117.942 166.35 120.362 166.226 123.131 166.019C125.557 165.301 126.492 164.01 127.752 161.93C128.731 159.801 128.731 157.645 128.76 155.331C128.764 155.007 128.769 154.683 128.774 154.349C128.788 153.283 128.8 152.218 128.811 151.152C128.821 150.411 128.83 149.67 128.84 148.929C128.866 146.983 128.888 145.037 128.911 143.09C128.934 141.103 128.959 139.115 128.985 137.127C129.034 133.23 129.081 129.334 129.126 125.437C132.018 125.437 134.909 125.437 137.888 125.437C137.93 129.903 137.964 134.369 137.984 138.836C137.994 140.91 138.007 142.984 138.028 145.059C138.048 147.065 138.059 149.072 138.063 151.078C138.067 151.839 138.073 152.6 138.084 153.361C138.152 158.79 138.137 164.853 134.113 169.017C130.135 173.015 125.307 174.71 119.701 175.012C114.968 174.842 110.879 172.797 107.527 169.521C103.996 165.289 103.239 160.943 103.249 155.593C103.249 155.264 103.249 154.935 103.249 154.596C103.249 153.523 103.252 152.45 103.256 151.377C103.257 150.628 103.258 149.878 103.258 149.129C103.26 147.167 103.264 145.205 103.269 143.243C103.274 141.236 103.276 139.23 103.279 137.224C103.284 133.295 103.292 129.366 103.301 125.437Z" fill="black"/>
<path d="M55.3398 16.6019C64.0144 16.6019 72.6889 16.6019 81.6263 16.6019C81.6263 19.4934 81.6263 22.3849 81.6263 25.3641C75.9954 25.3641 70.3646 25.3641 64.5631 25.3641C64.5631 29.3209 64.5631 33.2777 64.5631 37.3544C70.0418 37.3544 75.5204 37.3544 81.1651 37.3544C81.1651 40.0937 81.1651 42.833 81.1651 45.6553C75.6864 45.6553 70.2078 45.6553 64.5631 45.6553C64.5631 49.4599 64.5631 53.2645 64.5631 57.1845C70.194 57.1845 75.8248 57.1845 81.6263 57.1845C81.6263 59.9238 81.6263 62.6631 81.6263 65.4854C72.9517 65.4854 64.2772 65.4854 55.3398 65.4854C55.3398 49.3539 55.3398 33.2223 55.3398 16.6019Z" fill="black"/>
<path d="M42.9965 16.5425C46.4851 18.1947 49.8555 21.1944 51.1894 24.9029C51.4577 26.4536 51.5641 27.9376 51.6505 29.5145C48.6068 29.5145 45.5632 29.5145 42.4272 29.5145C41.9707 28.297 41.5141 27.0796 41.0437 25.8252C39.0833 24.5182 37.349 24.5549 35.0486 24.9029C33.5296 25.73 33.5296 25.73 32.7428 27.2087C32.3728 29.0078 32.5802 30.4511 33.2039 32.1662C34.917 34.0934 37.1982 34.835 39.5684 35.6808C44.8065 37.5504 49.196 39.624 52.1279 44.6249C53.8618 48.4636 53.4619 53.1669 52.0955 57.0583C50.3536 61.1627 47.6391 64.058 43.4721 65.7952C41.4333 66.5181 39.5328 66.6384 37.3832 66.6095C36.8354 66.6042 36.8354 66.6042 36.2765 66.5989C33.5207 66.5211 31.3791 66.1151 29.0534 64.5631C28.7342 64.3675 28.415 64.1719 28.0861 63.9704C25.0814 61.9542 23.2206 59.3176 21.963 55.945C21.6748 54.4174 21.6748 54.4174 21.6748 51.6504C24.7185 51.6504 27.7622 51.6504 30.8981 51.6504C31.3547 52.8679 31.8112 54.0854 32.2816 55.3398C33.8043 57.0396 34.5903 57.5874 36.8644 57.8762C39.2196 57.7092 41.2142 57.0624 42.8596 55.3109C43.5722 53.3407 43.8194 51.4002 43.3496 49.3446C41.525 46.2878 38.8255 45.4815 35.5962 44.2718C27.0302 41.0275 27.0302 41.0275 24.7012 36.8643C24.483 36.488 24.2649 36.1117 24.0401 35.724C22.6469 32.6823 22.5227 28.8126 23.3573 25.5946C26.7161 17.3268 34.6586 14.2969 42.9965 16.5425Z" fill="black"/>
<path d="M335.01 135.323C338.571 137.83 341.073 141.515 342.185 145.728C342.74 151.536 342.147 156.465 338.351 161.148C334.945 164.686 330.745 166.473 325.842 166.682C321.562 166.543 317.569 164.878 314.515 161.869C310.693 157.424 309.608 153.204 309.743 147.398C310.158 143.069 312.267 139.334 315.572 136.53C321.667 132.014 328.363 131.409 335.01 135.323Z" fill="white"/>
<path d="M82.5486 134.199C85.6838 135.955 88.1026 138.009 89.9272 141.117C90.1174 141.436 90.3077 141.755 90.5037 142.084C92.5018 146.129 92.6031 151.419 91.2459 155.681C89.0583 160.258 86.1907 163.588 81.4659 165.546C77.2044 166.998 72.8097 167.096 68.7136 165.097C64.2296 162.407 61.2443 158.603 59.6831 153.637C58.7615 148.899 59.434 144.635 61.9601 140.573C66.7859 133.715 74.6391 130.687 82.5486 134.199Z" fill="white"/>
<path d="M214.269 78.7151C218.518 78.7895 222.997 80.4017 225.971 83.4709C229.126 87.4189 230.8 91.5533 230.71 96.6753C230.23 100.775 228.813 104.451 225.971 107.451C225.616 107.834 225.616 107.834 225.254 108.224C222.127 111.239 218.412 112.167 214.153 112.265C209.288 112.107 205.971 110.885 202.451 107.451C199.577 103.907 198.044 100.533 198.128 95.98C198.133 95.6123 198.138 95.2447 198.143 94.8659C198.283 89.7004 199.979 86.4571 203.608 82.7629C206.835 79.8798 210.053 79.0785 214.269 78.7151Z" fill="white"/>
<path d="M136.966 71.4806C145.488 71.4806 154.01 71.4806 162.791 71.4806C162.791 74.2199 162.791 76.9592 162.791 79.7816C157.16 79.7816 151.529 79.7816 145.728 79.7816C145.728 83.7384 145.728 87.6952 145.728 91.7719C151.207 91.7719 156.685 91.7719 162.33 91.7719C162.33 94.5112 162.33 97.2505 162.33 100.073C157.003 100.073 151.677 100.073 146.189 100.073C146.189 103.725 146.189 107.378 146.189 111.141C151.668 111.141 157.146 111.141 162.791 111.141C162.791 113.88 162.791 116.619 162.791 119.442C154.269 119.442 145.746 119.442 136.966 119.442C136.966 103.615 136.966 87.7874 136.966 71.4806Z" fill="black"/>
<path d="M64.1021 71.4806C72.6244 71.4806 81.1467 71.4806 89.9273 71.4806C89.9273 74.2199 89.9273 76.9592 89.9273 79.7816C84.2965 79.7816 78.6656 79.7816 72.8642 79.7816C72.8642 83.7384 72.8642 87.6952 72.8642 91.7719C78.3428 91.7719 83.8215 91.7719 89.4661 91.7719C89.4661 94.5112 89.4661 97.2505 89.4661 100.073C84.1397 100.073 78.8132 100.073 73.3254 100.073C73.3254 103.725 73.3254 107.378 73.3254 111.141C78.804 111.141 84.2826 111.141 89.9273 111.141C89.9273 113.88 89.9273 116.619 89.9273 119.442C81.405 119.442 72.8826 119.442 64.1021 119.442C64.1021 103.615 64.1021 87.7874 64.1021 71.4806Z" fill="black"/>
<path d="M328.811 71.4806C337.333 71.4806 345.855 71.4806 354.636 71.4806C354.636 74.2199 354.636 76.9592 354.636 79.7816C349.005 79.7816 343.374 79.7816 337.573 79.7816C337.573 83.7384 337.573 87.6952 337.573 91.7719C343.051 91.7719 348.53 91.7719 354.175 91.7719C354.175 94.5112 354.175 97.2505 354.175 100.073C348.848 100.073 343.522 100.073 338.034 100.073C338.034 103.877 338.034 107.682 338.034 111.602C343.512 111.602 348.991 111.602 354.636 111.602C354.636 114.189 354.636 116.776 354.636 119.442C346.113 119.442 337.591 119.442 328.811 119.442C328.811 103.615 328.811 87.7874 328.811 71.4806Z" fill="black"/>
<path d="M91.3105 71.4806C94.3542 71.4806 97.3979 71.4806 100.534 71.4806C102.941 76.9539 104.819 82.6041 106.76 88.2555C107.278 89.7605 107.797 91.2653 108.316 92.77C108.649 93.736 108.982 94.7021 109.314 95.6684C110.009 97.6874 110.708 99.7042 111.438 101.711C111.548 102.013 111.658 102.316 111.771 102.627C112.051 103.392 112.335 104.156 112.619 104.92C112.985 106.068 112.985 106.068 112.985 107.451C113.29 107.451 113.594 107.451 113.908 107.451C113.985 107.152 114.062 106.852 114.141 106.543C115.028 103.184 116.101 99.9199 117.262 96.6465C117.449 96.1152 117.636 95.5838 117.829 95.0364C118.222 93.9191 118.617 92.8022 119.012 91.6856C119.611 89.9935 120.208 88.3004 120.803 86.6072C121.189 85.5148 121.574 84.4226 121.96 83.3304C122.135 82.8325 122.311 82.3346 122.492 81.8217C123.722 78.3509 125.026 74.9133 126.359 71.4806C129.403 71.4806 132.446 71.4806 135.582 71.4806C135.267 73.0564 134.985 74.2795 134.424 75.7378C134.281 76.1112 134.139 76.4846 133.992 76.8694C133.836 77.2716 133.68 77.6738 133.52 78.0882C133.274 78.7286 133.274 78.7286 133.024 79.3819C132.485 80.784 131.944 82.1851 131.403 83.5862C131.029 84.5581 130.655 85.5301 130.281 86.5021C126.813 95.513 123.317 104.513 119.783 113.499C119.47 114.297 119.157 115.096 118.845 115.895C118.679 116.316 118.513 116.737 118.343 117.17C118.207 117.517 118.07 117.864 117.93 118.222C117.597 118.981 117.597 118.981 117.136 119.442C115.892 119.476 114.661 119.484 113.418 119.471C113.068 119.469 112.718 119.466 112.358 119.464C111.491 119.459 110.624 119.451 109.757 119.442C105.484 108.672 101.263 97.8837 97.0863 87.0765C96.7313 86.1587 96.3763 85.2408 96.0213 84.323C95.7685 83.6688 95.7685 83.6688 95.5106 83.0014C94.2961 79.8651 93.0474 76.744 91.7709 73.6323C91.3105 72.4029 91.3105 72.4029 91.3105 71.4806Z" fill="black"/>
<path d="M23.0581 125.437C31.1239 125.437 39.1897 125.437 47.4999 125.437C47.4999 128.176 47.4999 130.916 47.4999 133.738C42.3256 133.738 37.1513 133.738 31.8202 133.738C31.8202 137.695 31.8202 141.651 31.8202 145.728C36.8423 145.728 41.8644 145.728 47.0387 145.728C47.0387 148.467 47.0387 151.207 47.0387 154.029C42.0166 154.029 36.9945 154.029 31.8202 154.029C31.8202 160.573 31.8202 167.117 31.8202 173.859C28.9287 173.859 26.0372 173.859 23.0581 173.859C23.0581 157.88 23.0581 141.9 23.0581 125.437Z" fill="black"/>
<path d="M402.136 71.4806C410.962 71.4806 419.789 71.4806 428.883 71.4806C428.883 74.2199 428.883 76.9592 428.883 79.7816C425.992 79.7816 423.1 79.7816 420.121 79.7816C420.121 93.0216 420.121 106.262 420.121 119.903C417.077 119.903 414.034 119.903 410.898 119.903C410.898 106.663 410.898 93.4228 410.898 79.7816C408.006 79.7816 405.115 79.7816 402.136 79.7816C402.136 77.0422 402.136 74.3029 402.136 71.4806Z" fill="black"/>
<path d="M259.175 125.437C268.154 125.437 277.133 125.437 286.384 125.437C286.384 128.328 286.384 131.22 286.384 134.199C283.34 134.199 280.296 134.199 277.16 134.199C277.16 147.287 277.16 160.375 277.16 173.859C274.269 173.859 271.377 173.859 268.398 173.859C268.398 160.619 268.398 147.379 268.398 133.738C265.354 133.738 262.311 133.738 259.175 133.738C259.175 130.999 259.175 128.259 259.175 125.437Z" fill="black"/>
<path d="M32.2817 79.7815C38.4324 79.7815 43.699 79.8546 48.3144 84.2454C51.5609 87.642 53.2025 91.9312 53.1332 96.6158C52.7511 101.055 50.8111 104.804 47.5867 107.826C43.0555 111.572 38.0816 111.141 32.2817 111.141C32.2817 100.792 32.2817 90.4436 32.2817 79.7815Z" fill="white"/>
<path d="M193.689 134.199C204.916 134.199 204.916 134.199 209.83 138.349C212.839 141.405 214.505 145.398 214.644 149.677C214.437 154.233 212.943 158.034 209.83 161.408C204.84 165.284 200.148 165.199 193.689 165.558C193.689 155.21 193.689 144.861 193.689 134.199Z" fill="white"/>
<path d="M166.48 71.4806C169.372 71.4806 172.263 71.4806 175.243 71.4806C175.243 84.7206 175.243 97.9607 175.243 111.602C180.113 111.602 184.982 111.602 190 111.602C190 114.189 190 116.776 190 119.442C182.238 119.442 174.477 119.442 166.48 119.442C166.48 103.615 166.48 87.7874 166.48 71.4806Z" fill="black"/>
<path d="M84.3931 16.6019C87.4368 16.6019 90.4804 16.6019 93.6164 16.6019C93.6164 32.7335 93.6164 48.865 93.6164 65.4854C90.5727 65.4854 87.529 65.4854 84.3931 65.4854C84.3931 49.3539 84.3931 33.2223 84.3931 16.6019Z" fill="black"/>
<path d="M289.15 125.437C292.042 125.437 294.933 125.437 297.913 125.437C297.913 141.416 297.913 157.396 297.913 173.859C295.021 173.859 292.13 173.859 289.15 173.859C289.15 157.88 289.15 141.9 289.15 125.437Z" fill="black"/>
<path d="M125.898 55.801C127.31 56.5792 127.31 56.5792 128.665 57.6456C129.219 58.0628 129.776 58.4759 130.337 58.885C130.59 59.077 130.843 59.269 131.104 59.4669C133.375 60.8614 136.246 60.6166 138.81 60.4126C140.565 59.9606 141.903 59.1344 143.336 58.0203C145.335 56.8832 147.158 56.8501 149.417 57.1845C149.874 57.4888 150.33 57.7932 150.801 58.1068C148.965 62.3207 144.833 64.2293 140.808 65.8871C134.815 67.9175 126.429 67.9578 120.663 65.2602C118.801 64.1973 117.006 63.0854 115.291 61.7961C121.66 55.2284 121.66 55.2284 125.898 55.801Z" fill="#E63613"/>
<path d="M250.874 79.7815C259.606 79.7815 259.606 79.7815 262.691 82.0585C263.716 84.3407 263.711 86.5514 263.325 89.0048C262.594 90.5726 261.575 91.4739 260.04 92.2978C258.222 92.8412 256.534 92.7925 254.65 92.7518C252.781 92.7232 252.781 92.7232 250.874 92.6941C250.874 88.433 250.874 84.1718 250.874 79.7815Z" fill="white"/>
<path d="M242.112 138.349C243.259 139.497 243.568 140.514 244.133 142.037C244.338 142.59 244.543 143.142 244.754 143.711C244.86 144 244.965 144.288 245.074 144.585C245.396 145.465 245.723 146.343 246.051 147.221C247.646 151.546 247.646 151.546 247.646 153.107C243.993 153.107 240.341 153.107 236.578 153.107C238.136 147.912 238.136 147.912 238.887 145.942C239.047 145.523 239.207 145.103 239.372 144.67C239.534 144.249 239.696 143.827 239.863 143.393C240.029 142.956 240.195 142.519 240.366 142.069C241.59 138.871 241.59 138.871 242.112 138.349Z" fill="white"/>
</svg>
