<svg width="16" height="9.33" viewBox="0 0 48 28" fill="none" xmlns="http://www.w3.org/2000/svg">
<g clip-path="url(#clip0_47_864)">
<path d="M13.4005 10.1688C13.4005 10.745 13.4635 11.2122 13.5746 11.5548C13.701 11.8974 13.859 12.271 14.0803 12.6761C14.1591 12.8004 14.191 12.9251 14.191 13.034C14.191 13.1897 14.0961 13.3455 13.8905 13.5013L12.8943 14.1553C12.7521 14.2489 12.6099 14.2953 12.483 14.2953C12.3251 14.2953 12.1667 14.2174 12.0088 14.0774C11.796 13.8523 11.6054 13.6072 11.4396 13.3455C11.2631 13.0465 11.0996 12.7399 10.9496 12.4267C9.71585 13.8596 8.16622 14.5758 6.30028 14.5758C4.9716 14.5758 3.91241 14.2021 3.13716 13.4544C2.36279 12.7072 1.96729 11.7106 1.96729 10.4646C1.96729 9.14113 2.44154 8.06662 3.40666 7.25681C4.37091 6.447 5.65191 6.04188 7.28072 6.04188C7.81841 6.04188 8.37185 6.08869 8.95679 6.16656C9.54172 6.24444 10.1424 6.36913 10.7755 6.50913V5.3725C10.7755 4.18906 10.5222 3.3635 10.0317 2.88094C9.52597 2.39794 8.67197 2.16431 7.45485 2.16431C6.90097 2.16431 6.33179 2.22687 5.74685 2.36687C5.16147 2.50687 4.59185 2.67837 4.03885 2.89625C3.78597 3.00562 3.5961 3.06775 3.48541 3.09881C3.37472 3.12988 3.29554 3.14563 3.2321 3.14563C3.01072 3.14563 2.90004 2.98987 2.90004 2.66262V1.89963C2.90004 1.65025 2.93197 1.46387 3.01072 1.3545C3.08991 1.24556 3.2321 1.13662 3.45347 1.02769C4.00735 0.747687 4.67147 0.513625 5.44629 0.326812C6.22066 0.124687 7.04316 0.0310625 7.91291 0.0310625C9.79504 0.0310625 11.1705 0.4515 12.056 1.29237C12.9262 2.13325 13.3685 3.40988 13.3685 5.12313V10.1688H13.4005ZM6.98016 12.5357C7.5021 12.5357 8.03979 12.4425 8.60897 12.2557C9.17816 12.0684 9.68435 11.7263 10.1113 11.2586C10.3642 10.9629 10.5541 10.6361 10.649 10.262C10.7435 9.88837 10.807 9.43688 10.807 8.9075V8.25344C10.3273 8.1385 9.84168 8.05014 9.35229 7.98875C8.85914 7.92703 8.36265 7.89576 7.86566 7.89512C6.80604 7.89512 6.03122 8.09769 5.50929 8.51812C4.98779 8.93812 4.73491 9.53006 4.73491 10.3088C4.73491 11.0407 4.92435 11.5859 5.31985 11.9595C5.69916 12.3489 6.2526 12.5357 6.98016 12.5357ZM19.6782 14.2174C19.3938 14.2174 19.2039 14.1711 19.0775 14.0617C18.9506 13.9685 18.8403 13.7506 18.7454 13.4544L15.0293 1.4175C14.9343 1.106 14.8871 0.903437 14.8871 0.7945C14.8871 0.545125 15.0135 0.405125 15.2664 0.405125H16.816C17.1166 0.405125 17.3222 0.451937 17.4329 0.560875C17.5598 0.6545 17.6543 0.872375 17.7492 1.16813L20.4057 11.4774L22.8728 1.16813C22.9515 0.856625 23.0469 0.6545 23.1733 0.560875C23.2998 0.467687 23.5212 0.405125 23.8055 0.405125H25.0708C25.3713 0.405125 25.577 0.451937 25.7034 0.560875C25.8298 0.6545 25.9405 0.872375 26.004 1.16813L28.5021 11.6021L31.2382 1.16813C31.3332 0.856625 31.4438 0.6545 31.5545 0.560875C31.681 0.467687 31.8866 0.405125 32.1714 0.405125H33.6414C33.8952 0.405125 34.0369 0.529812 34.0369 0.7945C34.0369 0.872375 34.0212 0.95025 34.0054 1.04387C33.9806 1.17681 33.9436 1.30716 33.8947 1.43325L30.0841 13.4706C29.9887 13.7821 29.8785 13.9843 29.7516 14.0779C29.6247 14.1715 29.4195 14.2336 29.1505 14.2336H27.7907C27.4902 14.2336 27.2845 14.1868 27.1581 14.0779C27.0317 13.9685 26.921 13.7664 26.8575 13.4549L24.4067 3.41031L21.9715 13.4391C21.8923 13.7506 21.7974 13.9527 21.671 14.0617C21.5441 14.1711 21.3232 14.2174 21.0383 14.2174H19.6782ZM39.9987 14.6379C39.1762 14.6379 38.3542 14.5447 37.5636 14.3579C36.773 14.1711 36.1562 13.9685 35.7449 13.7349C35.492 13.5949 35.3179 13.4391 35.2549 13.2987C35.1934 13.1616 35.1611 13.0132 35.16 12.8629V12.0684C35.16 11.7416 35.2864 11.5859 35.5235 11.5859C35.6185 11.5859 35.7134 11.6012 35.8079 11.6327C35.9033 11.6633 36.0455 11.7259 36.2034 11.7884C36.7415 12.0221 37.3265 12.2084 37.9429 12.3331C38.5755 12.4578 39.1924 12.5199 39.825 12.5199C40.8212 12.5199 41.596 12.3489 42.1337 12.0063C42.6714 11.6638 42.9562 11.1654 42.9562 10.5267C42.9562 10.0909 42.8136 9.73262 42.5288 9.43687C42.2444 9.14112 41.7063 8.876 40.9319 8.62706L38.639 7.92619C37.4844 7.56831 36.6308 7.0385 36.1085 6.33806C35.587 5.65294 35.3179 4.88994 35.3179 4.07969C35.3179 3.42562 35.4601 2.84988 35.7449 2.35156C36.0285 1.84899 36.4169 1.4133 36.8837 1.07406C37.358 0.716187 37.8957 0.4515 38.5283 0.264688C39.1605 0.077875 39.825 0 40.5207 0C40.8685 0 41.2325 0.0153125 41.5803 0.062125C41.9438 0.108938 42.2759 0.1715 42.6084 0.233625C42.9243 0.3115 43.2248 0.389375 43.5097 0.483C43.794 0.576187 44.0154 0.669375 44.1738 0.763C44.3952 0.887687 44.5531 1.01238 44.648 1.15238C44.743 1.27663 44.7902 1.44813 44.7902 1.666V2.39794C44.7902 2.72519 44.6638 2.89669 44.4267 2.89669C44.3002 2.89669 44.0946 2.83412 43.8255 2.70944C42.9243 2.30475 41.9123 2.10219 40.7893 2.10219C39.888 2.10219 39.1767 2.24219 38.6862 2.53838C38.1962 2.83413 37.9429 3.28563 37.9429 3.92438C37.9429 4.36013 38.1013 4.73375 38.4176 5.02994C38.7339 5.32569 39.3188 5.62144 40.1571 5.88613L42.4023 6.587C43.5412 6.94531 44.3632 7.44362 44.8537 8.08194C45.3437 8.72069 45.5808 9.45262 45.5808 10.262C45.5808 10.9314 45.4386 11.5395 45.17 12.0689C44.8852 12.5983 44.5058 13.0651 44.0154 13.4391C43.5254 13.8285 42.94 14.1085 42.2602 14.3111C41.5483 14.5289 40.8055 14.6379 39.9987 14.6379Z" fill="black"/>
<path d="M42.9862 22.2074C37.7839 25.9909 30.2247 27.9999 23.7257 27.9999C14.6169 27.9999 6.40943 24.6836 0.210493 19.1711C-0.279507 18.735 0.163243 18.143 0.748618 18.4856C7.45331 22.3163 15.7238 24.6368 24.2791 24.6368C30.0511 24.6368 36.3922 23.4534 42.2271 21.024C43.0969 20.6346 43.8402 21.5848 42.9862 22.2074Z" fill="black"/>
<path d="M45.1494 19.7768C44.4848 18.9359 40.753 19.3721 39.0611 19.5742C38.555 19.6368 38.4758 19.2006 38.9343 18.8738C41.9075 16.8179 46.794 17.4099 47.3631 18.095C47.9323 18.7959 47.2048 23.6075 44.4218 25.9123C43.9948 26.2706 43.5836 26.0838 43.7735 25.6165C44.4061 24.0748 45.8135 20.6023 45.1494 19.7768Z" fill="black"/>
<path d="M13.4005 10.1688C13.4005 10.745 13.4635 11.2122 13.5746 11.5548C13.701 11.8974 13.859 12.271 14.0803 12.6761C14.1591 12.8004 14.191 12.9251 14.191 13.034C14.191 13.1897 14.0961 13.3455 13.8905 13.5013L12.8943 14.1553C12.7521 14.2489 12.6099 14.2953 12.483 14.2953C12.3251 14.2953 12.1667 14.2174 12.0088 14.0774C11.796 13.8523 11.6054 13.6072 11.4396 13.3455C11.263 13.0465 11.0995 12.74 10.9496 12.4267C9.71585 13.8596 8.16622 14.5758 6.30028 14.5758C4.9716 14.5758 3.91241 14.2021 3.13716 13.4544C2.36279 12.7072 1.96729 11.7106 1.96729 10.4646C1.96729 9.14113 2.44154 8.06662 3.40666 7.25681C4.37091 6.447 5.65191 6.04188 7.28072 6.04188C7.81841 6.04188 8.37185 6.08869 8.95678 6.16656C9.54172 6.24444 10.1424 6.36913 10.7755 6.50913V5.3725C10.7755 4.18906 10.5222 3.3635 10.0317 2.88094C9.52597 2.39794 8.67197 2.16431 7.45485 2.16431C6.90097 2.16431 6.33178 2.22687 5.74685 2.36687C5.16147 2.50687 4.59185 2.67837 4.03885 2.89625C3.78597 3.00562 3.5961 3.06775 3.48541 3.09881C3.37472 3.12988 3.29553 3.14563 3.2321 3.14563C3.01072 3.14563 2.90004 2.98987 2.90004 2.66262V1.89963C2.90004 1.65025 2.93197 1.46387 3.01072 1.3545C3.08991 1.24556 3.2321 1.13662 3.45347 1.02769C4.00735 0.747687 4.67147 0.513625 5.44628 0.326812C6.22066 0.124687 7.04316 0.0310625 7.91291 0.0310625C9.79503 0.0310625 11.1705 0.4515 12.056 1.29237C12.9262 2.13325 13.3685 3.40988 13.3685 5.12313V10.1688H13.4005ZM6.98016 12.5357C7.5021 12.5357 8.03978 12.4425 8.60897 12.2557C9.17816 12.0684 9.68435 11.7263 10.1113 11.2586C10.3642 10.9629 10.5541 10.6361 10.649 10.262C10.7435 9.88837 10.807 9.43688 10.807 8.9075V8.25344C10.3273 8.13848 9.84169 8.05012 9.35229 7.98875C8.85914 7.92703 8.36265 7.89576 7.86566 7.89512C6.80604 7.89512 6.03122 8.09769 5.50929 8.51812C4.98779 8.93812 4.73491 9.53006 4.73491 10.3088C4.73491 11.0407 4.92435 11.5859 5.31985 11.9595C5.69916 12.3489 6.2526 12.5357 6.98016 12.5357ZM19.6782 14.2174C19.3938 14.2174 19.2039 14.1711 19.0775 14.0617C18.9506 13.9685 18.8403 13.7506 18.7454 13.4544L15.0293 1.4175C14.9343 1.106 14.8871 0.903437 14.8871 0.7945C14.8871 0.545125 15.0135 0.405125 15.2664 0.405125H16.816C17.1166 0.405125 17.3222 0.451937 17.4329 0.560875C17.5598 0.6545 17.6543 0.872375 17.7492 1.16813L20.4057 11.4774L22.8728 1.16813C22.9515 0.856625 23.0469 0.6545 23.1733 0.560875C23.2998 0.467687 23.5212 0.405125 23.8055 0.405125H25.0708C25.3713 0.405125 25.577 0.451937 25.7034 0.560875C25.8303 0.6545 25.9405 0.872375 26.004 1.16813L28.5021 11.6016L31.2387 1.16813C31.3336 0.856625 31.4443 0.6545 31.555 0.560875C31.6814 0.467687 31.887 0.405125 32.1718 0.405125H33.6418C33.8956 0.405125 34.0373 0.529812 34.0373 0.7945C34.0373 0.872375 34.0216 0.95025 34.0058 1.04387C33.981 1.1768 33.944 1.30715 33.8952 1.43325L30.0845 13.4706C29.9892 13.7821 29.8789 13.9843 29.752 14.0779C29.6252 14.1715 29.42 14.2336 29.1513 14.2336H27.7912C27.4906 14.2336 27.285 14.1868 27.1585 14.0779C27.0321 13.9685 26.9214 13.7664 26.858 13.4549L24.4067 3.41031L21.9715 13.4391C21.8923 13.7506 21.7974 13.9527 21.671 14.0617C21.5441 14.1711 21.3232 14.2174 21.0383 14.2174H19.6782ZM39.9987 14.6379C39.1762 14.6379 38.3542 14.5447 37.5636 14.3579C36.773 14.1711 36.1562 13.9685 35.7449 13.7349C35.492 13.5949 35.3179 13.4391 35.2549 13.2987C35.1934 13.1616 35.1611 13.0132 35.16 12.8629V12.0684C35.16 11.7416 35.2864 11.5859 35.5235 11.5859C35.6185 11.5859 35.7134 11.6012 35.8079 11.6327C35.9033 11.6633 36.0455 11.7259 36.2034 11.7884C36.7415 12.0221 37.3265 12.2084 37.9429 12.3331C38.5755 12.4578 39.1924 12.5199 39.825 12.5199C40.8212 12.5199 41.596 12.3489 42.1337 12.0063C42.6714 11.6638 42.9562 11.1654 42.9562 10.5267C42.9562 10.0909 42.8136 9.73262 42.5288 9.43687C42.2444 9.14112 41.7063 8.876 40.9319 8.62706L38.639 7.92619C37.4844 7.56831 36.6308 7.0385 36.1085 6.33806C35.587 5.65294 35.3179 4.88994 35.3179 4.07969C35.3179 3.42562 35.4601 2.84988 35.7449 2.35156C36.0285 1.849 36.4169 1.41332 36.8837 1.07406C37.358 0.716187 37.8957 0.4515 38.5283 0.264688C39.1605 0.077875 39.825 0 40.5207 0C40.8685 0 41.2325 0.0153125 41.5803 0.062125C41.9438 0.108938 42.2759 0.1715 42.6084 0.233625C42.9243 0.3115 43.2248 0.389375 43.5097 0.483C43.794 0.576187 44.0154 0.669375 44.1738 0.763C44.3952 0.887687 44.5531 1.01238 44.648 1.15238C44.743 1.27663 44.7902 1.44813 44.7902 1.666V2.39794C44.7902 2.72519 44.6638 2.89669 44.4267 2.89669C44.3002 2.89669 44.0946 2.83412 43.8255 2.70944C42.9243 2.30475 41.9123 2.10219 40.7893 2.10219C39.888 2.10219 39.1767 2.24219 38.6862 2.53838C38.1962 2.83413 37.9429 3.28563 37.9429 3.92438C37.9429 4.36013 38.1013 4.73375 38.4176 5.02994C38.7339 5.32569 39.3188 5.62144 40.1571 5.88613L42.4023 6.587C43.5412 6.94531 44.3632 7.44362 44.8537 8.08194C45.3437 8.72069 45.5812 9.45262 45.5812 10.262C45.5812 10.9314 45.4386 11.5395 45.17 12.0689C44.8852 12.5983 44.5058 13.0651 44.0154 13.4391C43.5254 13.8285 42.94 14.1085 42.2602 14.3111C41.5488 14.5289 40.8055 14.6379 39.9987 14.6379Z" fill="black"/>
<path d="M42.9862 22.2074C37.7839 25.9909 30.2248 27.9999 23.7257 27.9999C14.617 27.9999 6.40948 24.6836 0.210981 19.1711C-0.279019 18.735 0.163731 18.143 0.749107 18.4856C7.45379 22.3168 15.7243 24.6368 24.2796 24.6368C30.0515 24.6368 36.3927 23.4534 42.2276 21.024C43.0974 20.6346 43.8402 21.5848 42.9862 22.2074Z" fill="black"/>
<path d="M45.1494 19.7768C44.4848 18.9359 40.753 19.3721 39.0611 19.5742C38.555 19.6368 38.4758 19.2006 38.9343 18.8738C41.9075 16.8179 46.794 17.4099 47.3631 18.095C47.9323 18.7959 47.2048 23.6075 44.4218 25.9123C43.9948 26.2706 43.5836 26.0838 43.7735 25.6165C44.4061 24.0748 45.8135 20.6023 45.1494 19.7768Z" fill="black"/>
</g>
<defs>
<clipPath id="clip0_47_864">
<rect width="47.6875" height="28" fill="white"/>
</clipPath>
</defs>
</svg>
