<svg width="280" height="60" viewBox="0 0 280 60" fill="none" xmlns="http://www.w3.org/2000/svg">
<g clip-path="url(#clip0_47_844)">
<path d="M87.6906 31.9108V31.2128C87.6906 29.4588 87.0903 28.1164 85.8897 27.1857C84.7255 26.2192 83.1975 25.736 81.3056 25.736C79.8504 25.736 78.7044 25.9865 77.8676 26.4877C77.0672 26.953 76.3032 27.669 75.5756 28.6355C75.3573 28.9218 75.1208 29.1187 74.8661 29.2261C74.6114 29.3335 74.2658 29.3872 73.8292 29.3872H72.1921C71.7919 29.3872 71.4281 29.244 71.1006 28.9576C70.8096 28.6713 70.6822 28.3312 70.7186 27.9374C70.8278 26.8635 71.3553 25.8076 72.3012 24.7695C73.2835 23.6956 74.5751 22.8186 76.1759 22.1384C77.7766 21.4583 79.4866 21.1182 81.3056 21.1182C84.6891 21.1182 87.4177 22.0489 89.4915 23.9103C91.6016 25.7718 92.6567 28.3849 92.6567 31.7497V48.1266C92.6567 48.5203 92.5111 48.8604 92.2201 49.1468C91.929 49.4331 91.5834 49.5763 91.1832 49.5763H89.1641C88.7639 49.5763 88.4182 49.4331 88.1272 49.1468C87.8361 48.8604 87.6906 48.5203 87.6906 48.1266V45.9251C87.1085 47.2138 85.8715 48.234 83.9797 48.9857C82.0878 49.7374 80.196 50.1133 78.3042 50.1133C76.4487 50.1133 74.7934 49.7911 73.3381 49.1468C71.8828 48.4666 70.755 47.5538 69.9546 46.4083C69.1906 45.2629 68.8086 43.9742 68.8086 42.5423C68.8086 39.8576 69.8273 37.7635 71.8646 36.2601C73.902 34.7208 76.6124 33.6827 79.9959 33.1458L87.6906 31.9108ZM87.6906 36.2064L81.2511 37.2266C78.8863 37.5845 77.049 38.1752 75.7393 38.9985C74.4295 39.786 73.7747 40.7883 73.7747 42.0054C73.7747 42.9003 74.1931 43.7057 75.0298 44.4216C75.8666 45.1376 77.14 45.4955 78.8499 45.4955C81.4694 45.4955 83.5977 44.7617 85.2348 43.2941C86.872 41.8264 87.6906 39.9113 87.6906 37.5487V36.2064Z" fill="black"/>
<path d="M105.585 48.1265C105.585 48.5202 105.439 48.8603 105.148 49.1467C104.857 49.433 104.512 49.5762 104.111 49.5762H102.092C101.692 49.5762 101.346 49.433 101.055 49.1467C100.764 48.8603 100.619 48.5202 100.619 48.1265V12.9029C100.619 12.5091 100.764 12.1691 101.055 11.8827C101.346 11.5963 101.692 11.4531 102.092 11.4531H104.111C104.512 11.4531 104.857 11.5963 105.148 11.8827C105.439 12.1691 105.585 12.5091 105.585 12.9029V48.1265Z" fill="black"/>
<path d="M125.242 45.4955C128.88 45.4955 131.336 44.0995 132.61 41.3074C132.864 40.7704 133.119 40.3946 133.374 40.1798C133.628 39.965 133.974 39.8576 134.41 39.8576H136.048C136.448 39.8576 136.793 40.0008 137.084 40.2872C137.376 40.5377 137.521 40.842 137.521 41.2C137.521 42.417 137.03 43.7236 136.048 45.1197C135.065 46.5157 133.646 47.697 131.791 48.6635C129.936 49.63 127.753 50.1133 125.242 50.1133C122.659 50.1133 120.422 49.5763 118.53 48.5024C116.638 47.4285 115.183 45.9609 114.164 44.0995C113.145 42.2023 112.582 40.0903 112.472 37.7635C112.436 37.334 112.418 36.5107 112.418 35.2936C112.418 34.4345 112.436 33.8259 112.472 33.468C112.8 29.8167 114.055 26.8456 116.238 24.5547C118.421 22.2637 121.422 21.1182 125.242 21.1182C127.753 21.1182 129.917 21.6015 131.736 22.568C133.592 23.4987 134.993 24.6621 135.938 26.0581C136.921 27.4184 137.448 28.7071 137.521 29.9241C137.557 30.3179 137.412 30.658 137.084 30.9443C136.793 31.2307 136.448 31.3739 136.048 31.3739H134.41C133.974 31.3739 133.628 31.2665 133.374 31.0517C133.119 30.8369 132.864 30.4611 132.61 29.9241C131.336 27.132 128.88 25.736 125.242 25.736C123.241 25.736 121.495 26.3982 120.003 27.7227C118.512 29.0471 117.657 31.0517 117.438 33.7364C117.402 34.1302 117.384 34.7745 117.384 35.6694C117.384 36.4928 117.402 37.1013 117.438 37.4951C117.693 40.1798 118.548 42.1844 120.003 43.5088C121.495 44.8333 123.241 45.4955 125.242 45.4955Z" fill="black"/>
<path d="M169.265 48.1265C169.265 48.5202 169.12 48.8603 168.828 49.1467C168.537 49.433 168.192 49.5762 167.792 49.5762H165.772C165.372 49.5762 165.027 49.433 164.736 49.1467C164.444 48.8603 164.299 48.5202 164.299 48.1265V33.9511C164.299 31.2664 163.626 29.226 162.28 27.8299C160.934 26.4339 159.06 25.7359 156.659 25.7359C154.294 25.7359 152.42 26.4339 151.038 27.8299C149.692 29.226 149.019 31.2664 149.019 33.9511V48.1265C149.019 48.5202 148.873 48.8603 148.582 49.1467C148.291 49.433 147.945 49.5762 147.545 49.5762H145.526C145.126 49.5762 144.78 49.433 144.489 49.1467C144.198 48.8603 144.053 48.5202 144.053 48.1265V12.9029C144.053 12.5091 144.198 12.1691 144.489 11.8827C144.78 11.5963 145.126 11.4531 145.526 11.4531H147.545C147.945 11.4531 148.291 11.5963 148.582 11.8827C148.873 12.1691 149.019 12.5091 149.019 12.9029V24.7694C149.819 23.7313 150.911 22.8722 152.293 22.192C153.712 21.4761 155.44 21.1181 157.477 21.1181C159.769 21.1181 161.807 21.6014 163.59 22.5679C165.372 23.5344 166.755 24.9304 167.737 26.7561C168.756 28.5459 169.265 30.6758 169.265 33.1457V48.1265Z" fill="black"/>
<path d="M188.388 21.1182C192.281 21.1182 195.355 22.3353 197.611 24.7695C199.867 27.2036 200.995 30.5148 200.995 34.7029V36.1527C200.995 36.5465 200.849 36.8865 200.558 37.1729C200.267 37.4593 199.921 37.6024 199.521 37.6024H180.748V37.9246C180.821 40.2872 181.549 42.1486 182.931 43.5088C184.35 44.8333 186.169 45.4955 188.388 45.4955C190.207 45.4955 191.608 45.2629 192.59 44.7975C193.609 44.3321 194.519 43.6699 195.319 42.8108C195.61 42.5244 195.865 42.3276 196.083 42.2202C196.338 42.1128 196.665 42.0591 197.065 42.0591H198.703C199.139 42.0591 199.503 42.2023 199.794 42.4886C200.085 42.775 200.212 43.1151 200.176 43.5088C200.03 44.4753 199.485 45.4776 198.539 46.5157C197.629 47.518 196.301 48.3771 194.555 49.0931C192.845 49.7732 190.79 50.1133 188.388 50.1133C186.06 50.1133 183.986 49.5942 182.167 48.5561C180.348 47.4822 178.893 46.0146 177.801 44.1532C176.746 42.2918 176.11 40.1977 175.891 37.8709C175.819 36.797 175.782 35.9737 175.782 35.401C175.782 34.8282 175.819 34.0049 175.891 32.931C176.11 30.7116 176.746 28.7071 177.801 26.9172C178.893 25.1274 180.33 23.7135 182.113 22.6754C183.932 21.6373 186.024 21.1182 188.388 21.1182ZM196.083 33.0921V32.931C196.083 30.7474 195.374 29.0113 193.955 27.7227C192.572 26.3982 190.717 25.736 188.388 25.736C186.278 25.736 184.477 26.3982 182.986 27.7227C181.53 29.0471 180.785 30.7832 180.748 32.931V33.0921H196.083Z" fill="black"/>
<path d="M212.544 24.7695C213.417 23.6598 214.4 22.7828 215.491 22.1384C216.583 21.4583 218.038 21.1182 219.857 21.1182C224.114 21.1182 227.097 22.6754 228.807 25.7897C229.862 24.2862 231.062 23.1407 232.409 22.3532C233.755 21.5299 235.519 21.1182 237.702 21.1182C241.267 21.1182 243.905 22.1742 245.615 24.2862C247.361 26.3982 248.235 29.3872 248.235 33.2532V48.1266C248.235 48.5203 248.089 48.8604 247.798 49.1468C247.507 49.4331 247.161 49.5763 246.761 49.5763H244.742C244.342 49.5763 243.996 49.4331 243.705 49.1468C243.414 48.8604 243.268 48.5203 243.268 48.1266V33.7901C243.268 28.4207 241.122 25.736 236.829 25.736C234.864 25.736 233.3 26.3803 232.136 27.669C230.971 28.9576 230.389 30.8727 230.389 33.4143V48.1266C230.389 48.5203 230.244 48.8604 229.953 49.1468C229.662 49.4331 229.316 49.5763 228.916 49.5763H226.897C226.497 49.5763 226.151 49.4331 225.86 49.1468C225.569 48.8604 225.423 48.5203 225.423 48.1266V33.7901C225.423 28.4207 223.277 25.736 218.984 25.736C217.019 25.736 215.455 26.3803 214.291 27.669C213.126 28.9576 212.544 30.8727 212.544 33.4143V48.1266C212.544 48.5203 212.399 48.8604 212.108 49.1468C211.817 49.4331 211.471 49.5763 211.071 49.5763H209.052C208.651 49.5763 208.306 49.4331 208.015 49.1468C207.724 48.8604 207.578 48.5203 207.578 48.1266V23.1049C207.578 22.7112 207.724 22.3711 208.015 22.0847C208.306 21.7984 208.651 21.6552 209.052 21.6552H211.071C211.471 21.6552 211.817 21.7984 212.108 22.0847C212.399 22.3711 212.544 22.7112 212.544 23.1049V24.7695Z" fill="black"/>
<path d="M263.519 58.4894C263.191 59.3485 262.664 59.7781 261.936 59.7781H259.699C259.335 59.7781 259.025 59.6528 258.771 59.4022C258.516 59.1516 258.389 58.8474 258.389 58.4894C258.389 58.3462 258.407 58.2209 258.443 58.1135L263.682 46.8914L252.877 23.3195C252.841 23.2121 252.822 23.0868 252.822 22.9436C252.822 22.5857 252.95 22.2814 253.204 22.0308C253.459 21.7803 253.768 21.655 254.132 21.655H256.37C257.097 21.655 257.625 22.0845 257.952 22.9436L266.356 41.1998L274.87 22.9436C275.197 22.0845 275.725 21.655 276.452 21.655H278.69C279.054 21.655 279.363 21.7803 279.617 22.0308C279.872 22.2814 279.999 22.5857 279.999 22.9436C279.999 23.0868 279.981 23.2121 279.945 23.3195L263.519 58.4894Z" fill="black"/>
<path d="M48.174 31.8131L29.8497 0.731377C29.761 0.5779 29.6325 0.450054 29.4772 0.360741C29.3219 0.271427 29.1453 0.223804 28.9652 0.222677C28.7851 0.22155 28.6079 0.266959 28.4515 0.354322C28.2951 0.441684 28.165 0.567912 28.0743 0.720266L22.5863 10.0337C22.4066 10.3385 22.312 10.6844 22.312 11.0364C22.312 11.3884 22.4066 11.7343 22.5863 12.0391L34.5349 32.3159C34.7148 32.621 34.9737 32.8744 35.2854 33.0504C35.5971 33.2265 35.9506 33.319 36.3104 33.3186H47.2863C47.466 33.3181 47.6424 33.2714 47.7979 33.1832C47.9533 33.095 48.0825 32.9683 48.1723 32.8159C48.2622 32.6636 48.3096 32.4907 48.3099 32.3148C48.3102 32.1388 48.2633 31.9658 48.174 31.8131Z" fill="black"/>
<path d="M0.1413 48.0576L18.4656 16.9759C18.5555 16.8236 18.6848 16.6972 18.8404 16.6093C18.9959 16.5214 19.1723 16.4751 19.3519 16.4751C19.5315 16.4751 19.708 16.5214 19.8635 16.6093C20.0191 16.6972 20.1483 16.8236 20.2382 16.9759L25.729 26.2809C25.9087 26.5863 26.0033 26.9326 26.0033 27.285C26.0033 27.6375 25.9087 27.9838 25.729 28.2892L13.7803 48.5659C13.6011 48.871 13.3428 49.1245 13.0316 49.3005C12.7204 49.4766 12.3672 49.5691 12.0077 49.5686H1.02901C0.848158 49.5695 0.670298 49.5235 0.513509 49.4352C0.35672 49.3469 0.226614 49.2195 0.136418 49.066C0.0462218 48.9125 -0.000849128 48.7383 1.15957e-05 48.5612C0.00087232 48.384 0.0496154 48.2103 0.1413 48.0576Z" fill="black"/>
<path d="M20.2357 49.5621H56.8844C57.0641 49.5619 57.2407 49.5154 57.3963 49.4272C57.5519 49.339 57.681 49.2122 57.7707 49.0596C57.8604 48.907 57.9075 48.734 57.9073 48.5579C57.907 48.3818 57.8594 48.2089 57.7693 48.0566L52.287 38.746C52.1071 38.4408 51.8483 38.1874 51.5366 38.0114C51.2249 37.8354 50.8713 37.7429 50.5115 37.7432H26.6142C26.2544 37.7429 25.9009 37.8354 25.5892 38.0114C25.2775 38.1874 25.0187 38.4408 24.8388 38.746L19.3509 48.0566C19.2607 48.2089 19.2131 48.3818 19.2129 48.5579C19.2126 48.734 19.2596 48.907 19.3493 49.0596C19.439 49.2122 19.5682 49.339 19.7238 49.4272C19.8794 49.5154 20.0559 49.5619 20.2357 49.5621Z" fill="black"/>
</g>
<defs>
<clipPath id="clip0_47_844">
<rect width="280" height="60" fill="white"/>
</clipPath>
</defs>
</svg>
