<svg width="271" height="69" viewBox="0 0 271 69" fill="none" xmlns="http://www.w3.org/2000/svg">
<path d="M43.9051 21.5474C44.4137 21.4601 44.4137 21.4601 45.0491 21.4649C45.2865 21.465 45.524 21.4651 45.7687 21.4651C46.0257 21.4689 46.2827 21.4726 46.5474 21.4765C46.8101 21.4775 47.0727 21.4785 47.3433 21.4796C48.1846 21.4837 49.0257 21.4928 49.8669 21.502C50.4363 21.5056 51.0056 21.509 51.5749 21.5119C52.9727 21.52 54.3705 21.5321 55.7682 21.5474C57.0154 24.676 58.1614 27.8343 59.2735 31.0132C59.7506 32.3766 60.2302 33.739 60.7097 35.1015C60.8048 35.3719 60.8999 35.6423 60.9979 35.9209C61.8308 38.2861 62.6767 40.6464 63.5307 43.004C63.5939 43.1785 63.657 43.353 63.7221 43.5327C64.3067 45.1478 64.8932 46.7623 65.4806 48.3764C65.739 49.0872 65.9966 49.7982 66.2544 50.5092C66.3464 50.7607 66.4383 51.0121 66.533 51.2711C66.6149 51.4972 66.6968 51.7233 66.7812 51.9562C66.8525 52.1518 66.9237 52.3473 66.9971 52.5488C67.1472 53.0211 67.1472 53.0211 67.1472 53.5053C63.2324 53.5053 59.3175 53.5053 55.284 53.5053C54.1947 50.7821 54.1947 50.7821 53.8095 49.7059C53.7231 49.4652 53.6367 49.2246 53.5477 48.9767C53.4581 48.726 53.3685 48.4752 53.2763 48.2168C53.1341 47.8206 53.1341 47.8206 52.989 47.4165C52.6894 46.5813 52.3903 45.746 52.0913 44.9106C51.7896 44.0683 51.4879 43.226 51.1857 42.3839C50.9984 41.8618 50.8114 41.3397 50.6247 40.8174C50.5406 40.5829 50.4565 40.3484 50.3699 40.1068C50.2959 39.9001 50.222 39.6934 50.1458 39.4805C49.966 38.9743 49.966 38.9743 49.7156 38.4948C49.653 38.665 49.5904 38.8352 49.5259 39.0105C48.9347 40.6171 48.3435 42.2235 47.752 43.8299C47.448 44.6557 47.144 45.4816 46.8401 46.3075C46.5467 47.105 46.2532 47.9024 45.9595 48.6998C45.7934 49.151 45.6274 49.6023 45.4614 50.0536C45.3597 50.3298 45.2579 50.606 45.1531 50.8906C45.0638 51.133 44.9746 51.3755 44.8826 51.6253C44.6462 52.2553 44.3971 52.8805 44.1472 53.5053C40.1525 53.5053 36.1577 53.5053 32.0419 53.5053C30.7237 49.7902 30.7237 49.7902 29.3788 46C28.42 48.4768 27.4613 50.9535 26.4735 53.5053C22.5587 53.5053 18.6438 53.5053 14.6104 53.5053C14.8028 52.5429 15.0288 51.7522 15.3688 50.8421C15.4233 50.6958 15.4777 50.5494 15.5338 50.3986C15.7193 49.9005 15.9063 49.4029 16.0932 48.9053C16.227 48.5473 16.3607 48.1892 16.4944 47.8311C16.9943 46.4937 17.497 45.1574 17.9998 43.8211C18.1106 43.5267 18.2214 43.2323 18.3355 42.9289C20.0767 38.3024 21.8219 33.6773 23.5682 29.0527C27.4831 29.0527 31.3979 29.0527 35.4314 29.0527C36.1443 30.7636 36.8351 32.4347 37.4288 34.1823C37.7397 35.3362 37.7397 35.3362 38.3367 36.3158C38.3993 36.1415 38.4619 35.9672 38.5264 35.7876C39.1167 34.145 39.708 32.5028 40.3003 30.8609C40.6048 30.0167 40.9089 29.1725 41.2121 28.3279C41.5048 27.5129 41.7985 26.6982 42.0928 25.8838C42.2049 25.573 42.3167 25.2621 42.4281 24.9511C42.5842 24.5154 42.7417 24.0803 42.8992 23.6452C42.9884 23.3974 43.0777 23.1495 43.1696 22.8942C43.4209 22.2737 43.4209 22.2737 43.9051 21.5474Z" fill="black"/>
<path d="M96.4031 25.5809C97.4093 26.205 98.4277 26.9731 98.7864 28.1372C98.8243 28.3507 98.8243 28.3507 98.863 28.5684C99.0228 28.5684 99.1825 28.5684 99.3472 28.5684C99.4096 28.4261 99.472 28.2838 99.5363 28.1372C100.358 26.6407 101.928 25.6583 103.502 25.0957C105.779 24.5695 108.213 24.7138 110.224 25.9497C111.762 27.1125 112.608 28.8662 112.905 30.7474C112.926 31.3827 112.935 32.0114 112.932 32.6466C112.932 33.0352 112.932 33.4238 112.932 33.8124C112.932 34.0172 112.931 34.2221 112.931 34.4332C112.93 35.5243 112.937 36.6154 112.941 37.7065C112.947 39.0921 112.951 40.4776 112.947 41.8632C112.945 42.9856 112.949 44.1076 112.958 45.2299C112.96 45.6557 112.959 46.0814 112.956 46.5071C112.939 49.0161 113.035 50.7095 114.6 52.779C114.68 53.0186 114.76 53.2583 114.842 53.5053C111.646 53.5053 108.45 53.5053 105.158 53.5053C105.407 52.5071 105.755 51.9574 106.33 51.1315C106.928 49.9968 106.884 48.718 106.888 47.4613C106.888 47.2993 106.889 47.1373 106.89 46.9704C106.892 46.4386 106.893 45.9067 106.893 45.3749C106.894 45.0022 106.895 44.6296 106.896 44.2569C106.897 43.4769 106.897 42.6968 106.897 41.9168C106.897 40.9221 106.901 39.9274 106.905 38.9327C106.907 38.1631 106.908 37.3936 106.908 36.624C106.908 36.2575 106.909 35.8911 106.911 35.5246C107.022 31.9757 107.022 31.9757 105.642 28.8105C104.462 28.0616 103.114 28.1803 101.768 28.3263C100.972 28.5984 100.195 28.931 99.5893 29.5369C99.5598 30.1649 99.546 30.7866 99.5426 31.415C99.5406 31.6119 99.5386 31.8087 99.5366 32.0116C99.5306 32.6667 99.5266 33.3219 99.5231 33.977C99.5211 34.3127 99.5211 34.3127 99.5192 34.6552C99.5127 35.8416 99.508 37.028 99.5045 38.2144C99.5005 39.4363 99.4897 40.6581 99.4773 41.88C99.4691 42.822 99.4664 43.7639 99.465 44.7059C99.4634 45.156 99.4597 45.606 99.4539 46.0561C99.4088 49.4684 99.4088 49.4684 100.8 52.5369C100.96 52.8564 101.119 53.176 101.284 53.5053C98.0882 53.5053 94.8924 53.5053 91.5998 53.5053C91.8497 52.5057 92.203 51.9406 92.7725 51.1079C93.3718 50.0206 93.327 48.8587 93.3336 47.642C93.3348 47.4706 93.336 47.2992 93.3372 47.1226C93.3407 46.558 93.3424 45.9934 93.3437 45.4288C93.3444 45.235 93.3451 45.0411 93.3458 44.8414C93.3494 43.8154 93.3517 42.7894 93.3527 41.7634C93.354 40.7081 93.3598 39.653 93.3667 38.5977C93.3713 37.7823 93.3725 36.9668 93.3729 36.1513C93.3736 35.7626 93.3755 35.3738 93.3787 34.985C93.4941 31.6022 93.4941 31.6022 92.0121 28.6829C91.2348 28.2594 90.7275 28.1891 89.8445 28.1901C89.5886 28.1848 89.3327 28.1795 89.069 28.1741C88.2373 28.3215 87.7874 28.5269 87.0672 28.9411C86.8727 29.0521 86.6782 29.1631 86.4778 29.2774C86.3305 29.363 86.1832 29.4486 86.0314 29.5369C86.0089 32.1866 85.9917 34.8362 85.9812 37.486C85.9762 38.7165 85.9693 39.9469 85.9583 41.1774C85.9478 42.3658 85.942 43.554 85.9395 44.7424C85.9377 45.1949 85.9342 45.6474 85.929 46.0999C85.9219 46.7356 85.921 47.3711 85.9214 48.0068C85.918 48.1923 85.9145 48.3778 85.9109 48.5689C85.9245 50.362 86.6512 51.6237 87.7261 53.0211C87.7261 53.1809 87.7261 53.3406 87.7261 53.5053C84.5303 53.5053 81.3345 53.5053 78.0419 53.5053C78.2918 52.5057 78.6451 51.9406 79.2146 51.1079C79.832 49.9877 79.7737 48.7575 79.7757 47.5087C79.7769 47.3231 79.7781 47.1375 79.7793 46.9463C79.7828 46.3345 79.7845 45.7228 79.7858 45.111C79.7872 44.6837 79.7886 44.2564 79.79 43.8292C79.7925 42.9337 79.794 42.0382 79.7948 41.1428C79.7961 39.9996 79.802 38.8565 79.8088 37.7133C79.8134 36.8305 79.8146 35.9478 79.815 35.065C79.8157 34.6438 79.8176 34.2226 79.8208 33.8014C79.8421 30.7779 79.645 28.6409 77.7998 26.1474C77.7998 25.9077 77.7998 25.668 77.7998 25.4211C80.3564 25.4211 82.9131 25.4211 85.5472 25.4211C85.707 26.2999 85.8668 27.1788 86.0314 28.0842C86.2636 27.7622 86.2636 27.7622 86.5005 27.4336C88.7972 24.6736 93.2567 24.1048 96.4031 25.5809Z" fill="black"/>
<path d="M245.337 13.8C247.973 13.8 250.61 13.8 253.326 13.8C253.326 26.9027 253.326 40.0055 253.326 53.5053C251.409 53.5053 249.491 53.5053 247.516 53.5053C247.436 52.7063 247.356 51.9074 247.273 51.0842C247.159 51.2128 247.044 51.3414 246.926 51.4738C245.233 53.2831 243.653 54.1027 241.163 54.2382C238.8 54.2148 237.155 53.4539 235.424 51.8625C232.141 48.4092 231.919 43.4531 231.969 38.9591C232.082 34.5682 233.198 30.2569 236.41 27.0921C238.656 25.1993 241.176 24.6391 244.07 24.8413C245.184 25.0383 246.228 25.4836 247.273 25.9053C247.298 24.8463 247.315 23.7874 247.327 22.7282C247.331 22.369 247.338 22.0097 247.347 21.6506C247.41 18.872 247.199 16.7209 245.337 14.5263C245.337 14.2866 245.337 14.0469 245.337 13.8ZM240.249 28.1532C237.206 32.3159 237.941 40.3242 238.648 45.1328C239.032 47.3235 239.575 48.9336 241.16 50.5546C242.263 51.2968 243.162 51.466 244.441 51.2185C245.64 50.8679 246.713 50.3845 247.516 49.3895C247.721 48.6754 247.7 47.9906 247.68 47.2518C247.681 47.0391 247.681 46.8264 247.681 46.6073C247.68 45.9062 247.669 45.2057 247.657 44.5048C247.655 44.018 247.653 43.5312 247.651 43.0444C247.646 41.7647 247.631 40.4852 247.615 39.2056C247.6 37.8992 247.594 36.5928 247.587 35.2864C247.571 32.7241 247.546 30.1621 247.516 27.6C247.212 27.4397 246.907 27.2814 246.602 27.1238C246.348 26.9912 246.348 26.9912 246.088 26.856C243.984 25.9291 241.711 26.4949 240.249 28.1532Z" fill="black"/>
<path d="M159.632 25.9053C161.091 26.9673 161.855 28.2858 162.295 30.0211C162.412 31.282 162.426 32.5318 162.42 33.7974C162.417 34.4298 162.42 35.062 162.424 35.6944C162.43 36.8092 162.432 37.9239 162.431 39.0388C162.431 40.8234 162.434 42.608 162.445 44.3926C162.447 45.0124 162.445 45.632 162.443 46.2517C162.446 48.9411 162.608 50.9541 164.474 53.0211C164.474 53.1808 164.474 53.3406 164.474 53.5053C161.278 53.5053 158.082 53.5053 154.79 53.5053C155.042 52.4967 155.422 51.9339 156 51.0842C156.291 50.2114 156.282 49.411 156.285 48.5022C156.287 48.3135 156.288 48.1248 156.29 47.9305C156.295 47.3059 156.297 46.6813 156.3 46.0567C156.301 45.8432 156.302 45.6296 156.303 45.4096C156.308 44.2789 156.311 43.1483 156.314 42.0177C156.316 40.8516 156.325 39.6856 156.334 38.5196C156.341 37.6215 156.343 36.7234 156.344 35.8253C156.345 35.3956 156.348 34.9658 156.352 34.5361C156.358 33.9335 156.358 33.3311 156.356 32.7284C156.359 32.5523 156.362 32.3761 156.365 32.1947C156.352 30.8615 156.009 30.1256 155.274 29.0526C154.226 28.2607 153.194 28.2287 151.926 28.1826C151.14 28.3297 150.608 28.5774 149.899 28.9406C149.573 29.1071 149.573 29.1071 149.24 29.2771C149.074 29.3628 148.908 29.4485 148.737 29.5368C148.703 32.2455 148.677 34.954 148.662 37.6628C148.654 38.9208 148.644 40.1786 148.627 41.4365C148.612 42.6515 148.603 43.8664 148.599 45.0815C148.596 45.544 148.591 46.0064 148.583 46.4688C148.438 49.6615 148.438 49.6615 149.877 52.4008C150.19 52.7789 150.19 52.7789 150.19 53.5053C146.994 53.5053 143.798 53.5053 140.505 53.5053C140.99 52.5368 140.99 52.5368 141.489 51.7954C142.246 50.6482 142.238 49.6807 142.243 48.3504C142.245 48.1456 142.246 47.9408 142.248 47.7298C142.253 47.0514 142.255 46.373 142.258 45.6945C142.259 45.4626 142.26 45.2306 142.261 44.9916C142.266 43.7634 142.269 42.5351 142.272 41.3069C142.274 40.0404 142.283 38.7741 142.292 37.5077C142.299 36.5321 142.301 35.5565 142.301 34.5809C142.303 34.1142 142.305 33.6475 142.31 33.1809C142.316 32.5261 142.316 31.8716 142.314 31.2167C142.319 30.9301 142.319 30.9301 142.323 30.6376C142.308 29.0227 141.777 27.836 140.808 26.5559C140.505 26.1474 140.505 26.1474 140.505 25.4211C143.062 25.4211 145.619 25.4211 148.253 25.4211C148.373 26.8592 148.373 26.8592 148.495 28.3263C148.66 28.1116 148.824 27.8969 148.994 27.6757C151.543 24.6487 156.202 23.8039 159.632 25.9053Z" fill="black"/>
<path d="M211.034 26.5862C211.335 26.8391 211.633 27.0962 211.926 27.3579C212.067 27.4681 212.208 27.5782 212.353 27.6918C214.607 29.6315 215.786 32.9886 216.284 35.8316C216.339 36.1412 216.394 36.4508 216.451 36.7698C216.944 41.8823 216.023 46.8357 212.716 50.8714C210.864 52.9003 208.368 54.0552 205.632 54.2316C202.16 54.2613 199.696 53.2406 197.182 50.897C194.07 47.6699 193.41 42.9112 193.474 38.6205C193.621 34.3773 195.029 30.2162 198.165 27.252C201.679 24.2676 207.222 23.8732 211.034 26.5862ZM201.912 27.7258C198.627 32.174 199.695 41.8309 200.441 47.0129C200.786 49.1095 201.304 50.6977 202.878 52.1586C203.882 52.8196 204.69 52.876 205.874 52.779C207.039 52.4518 207.838 51.929 208.491 50.9026C209.999 47.6297 209.862 43.925 209.842 40.4031C209.838 39.5856 209.842 38.7684 209.847 37.951C209.971 32.358 209.971 32.358 207.811 27.3579C206.926 26.4943 206.227 26.3221 205.026 26.2684C203.628 26.3291 202.859 26.6698 201.912 27.7258Z" fill="black"/>
<path d="M134.316 26.3441C135.469 27.2827 135.928 28.3293 136.147 29.779C136.181 30.5509 136.178 31.3219 136.175 32.0944C136.175 32.326 136.175 32.5576 136.175 32.7962C136.175 33.5599 136.173 34.3236 136.171 35.0873C136.17 35.6175 136.17 36.1478 136.17 36.678C136.169 38.0722 136.166 39.4665 136.164 40.8607C136.161 42.284 136.16 43.7072 136.159 45.1304C136.156 47.9221 136.152 50.7137 136.147 53.5053C134.23 53.5053 132.312 53.5053 130.337 53.5053C130.217 52.5466 130.217 52.5466 130.095 51.5685C129.977 51.6621 129.86 51.7557 129.739 51.8522C127.582 53.5279 125.778 54.4024 122.98 54.1872C121.334 53.9085 119.917 53.1077 118.811 51.8541C117.348 49.7342 117.318 47.2567 117.747 44.7895C118.463 42.4858 119.815 41.1054 121.896 39.9396C124.43 38.6227 127.142 37.6774 129.852 36.8C129.87 35.5809 129.884 34.3619 129.892 33.1427C129.896 32.7283 129.901 32.3138 129.907 31.8994C129.916 31.3026 129.92 30.7059 129.923 30.109C129.927 29.9246 129.931 29.7402 129.935 29.5503C129.935 28.4518 129.812 27.7444 129.126 26.8737C128.262 26.4419 127.405 26.4874 126.463 26.6316C123.616 27.7647 121.294 30.5349 119.2 32.6842C118.96 32.6043 118.72 32.5245 118.473 32.4421C118.553 30.7643 118.633 29.0866 118.716 27.3579C123.291 25.3492 129.737 23.2003 134.316 26.3441ZM125.121 40.6983C123.704 42.2632 123.474 43.7995 123.482 45.8487C123.478 46.0453 123.474 46.2419 123.47 46.4445C123.469 48.0555 123.697 49.4797 124.829 50.706C125.785 51.2493 126.603 51.4702 127.694 51.2025C128.604 50.8829 129.374 50.5279 130.095 49.8737C130.234 49.3344 130.234 49.3344 130.204 48.7245C130.204 48.4919 130.204 48.2593 130.204 48.0196C130.199 47.7692 130.194 47.5187 130.189 47.2607C130.188 47.0038 130.186 46.7469 130.185 46.4822C130.18 45.6606 130.167 44.8393 130.155 44.0178C130.15 43.4612 130.146 42.9047 130.142 42.3481C130.131 40.9829 130.115 39.6178 130.095 38.2527C128.526 38.2527 126.31 39.7157 125.121 40.6983Z" fill="black"/>
<path d="M192.407 13.5277C192.587 13.5265 192.767 13.5254 192.952 13.5243C194.223 13.528 194.223 13.528 194.495 13.8C194.512 14.4529 194.517 15.0994 194.51 15.752C194.509 15.9357 194.508 16.1193 194.507 16.3086C194.504 16.7636 194.499 17.2187 194.495 17.6737C193.342 17.6737 192.478 16.8943 191.541 16.2693C190.473 15.5921 189.746 15.3492 188.442 15.4948C187.926 16.0107 188.137 17.1633 188.123 17.8789C188.118 18.0935 188.113 18.3081 188.108 18.5293C188.092 19.2175 188.078 19.9058 188.064 20.5941C188.053 21.0596 188.043 21.525 188.032 21.9905C188.006 23.134 187.982 24.2775 187.958 25.4211C189.476 25.4211 190.994 25.4211 192.558 25.4211C192.558 25.9004 192.558 26.3798 192.558 26.8737C191.04 26.8737 189.522 26.8737 187.958 26.8737C187.957 29.8981 187.962 32.9223 187.977 35.9467C187.984 37.3512 187.989 38.7555 187.987 40.16C187.985 41.5164 187.991 42.8726 188.001 44.2289C188.004 44.7454 188.004 45.2619 188.002 45.7784C187.999 46.504 188.005 47.2291 188.013 47.9548C188.01 48.1665 188.007 48.3783 188.004 48.5965C188.033 50.0535 188.43 50.8969 189.318 52.0501C189.653 52.5369 189.653 52.5369 189.895 53.5053C186.619 53.5053 183.343 53.5053 179.968 53.5053C180.318 52.8054 180.633 52.2788 181.078 51.6578C181.798 50.511 181.836 49.5309 181.823 48.2021C181.825 47.9704 181.828 47.7387 181.83 47.5C181.837 46.7402 181.836 45.9806 181.834 45.2207C181.838 44.6916 181.841 44.1624 181.845 43.6332C181.855 42.2449 181.858 40.8567 181.859 39.4684C181.861 38.05 181.87 36.6315 181.878 35.2131C181.894 32.4333 181.902 29.6535 181.905 26.8737C180.947 26.8737 179.988 26.8737 179 26.8737C179 26.3943 179 25.915 179 25.4211C179.959 25.4211 180.917 25.4211 181.905 25.4211C181.9 24.992 181.894 24.5628 181.888 24.1207C181.884 23.5504 181.879 22.9802 181.875 22.4099C181.871 22.1279 181.867 21.8459 181.863 21.5554C181.85 19.2235 181.915 17.2837 183.427 15.4286C185.711 13.1288 189.405 13.5382 192.407 13.5277Z" fill="black"/>
<path d="M219.189 13.8C221.826 13.8 224.463 13.8 227.179 13.8C227.181 14.89 227.183 15.9799 227.186 17.1029C227.194 20.7035 227.207 24.3041 227.223 27.9046C227.233 30.0877 227.241 32.2708 227.245 34.4539C227.248 36.3571 227.254 38.2602 227.265 40.1634C227.27 41.1708 227.274 42.1781 227.274 43.1855C227.274 44.1346 227.278 45.0836 227.286 46.0327C227.288 46.3801 227.288 46.7275 227.287 47.0749C227.278 49.5708 227.583 51.0282 229.116 53.021C229.116 53.1808 229.116 53.3406 229.116 53.5053C225.84 53.5053 222.564 53.5053 219.189 53.5053C219.614 52.6555 220.08 51.9125 220.613 51.1315C221.366 49.6568 221.162 47.8512 221.161 46.239C221.162 45.9471 221.163 45.6552 221.164 45.3545C221.166 44.5566 221.167 43.7587 221.167 42.9608C221.167 42.4614 221.167 41.962 221.168 41.4626C221.17 39.7176 221.171 37.9726 221.171 36.2276C221.171 34.6054 221.174 32.9832 221.177 31.361C221.181 29.9646 221.182 28.5683 221.182 27.1719C221.182 26.3395 221.182 25.5072 221.185 24.6748C221.187 23.7454 221.187 22.816 221.185 21.8866C221.187 21.4773 221.187 21.4773 221.189 21.0597C221.181 19.0723 221.126 17.1608 219.886 15.525C219.189 14.5958 219.189 14.5958 219.189 13.8Z" fill="black"/>
<path d="M167.137 25.4211C169.773 25.4211 172.41 25.4211 175.126 25.4211C175.128 26.1676 175.131 26.9142 175.133 27.6833C175.141 30.1514 175.155 32.6194 175.171 35.0874C175.18 36.5835 175.188 38.0797 175.192 39.5759C175.195 41.0202 175.204 42.4643 175.215 43.9085C175.219 44.4592 175.221 45.0099 175.221 45.5605C175.222 46.3326 175.228 47.1044 175.236 47.8764C175.235 48.1035 175.234 48.3306 175.232 48.5645C175.26 50.2955 175.714 51.2298 176.76 52.6125C177.063 53.0211 177.063 53.0211 177.063 53.5053C173.787 53.5053 170.512 53.5053 167.137 53.5053C167.621 52.5369 167.621 52.5369 168.12 51.7954C168.877 50.6482 168.87 49.6807 168.874 48.3504C168.876 48.1457 168.877 47.9409 168.879 47.7299C168.884 47.0514 168.887 46.373 168.889 45.6946C168.89 45.4626 168.891 45.2306 168.892 44.9916C168.897 43.7634 168.901 42.5352 168.903 41.3069C168.906 40.0405 168.914 38.7741 168.924 37.5077C168.93 36.5321 168.932 35.5565 168.933 34.5809C168.934 34.1143 168.937 33.6476 168.941 33.1809C168.947 32.5261 168.947 31.8716 168.945 31.2168C168.95 30.9301 168.95 30.9301 168.955 30.6376C168.94 29.0228 168.408 27.836 167.439 26.556C167.137 26.1474 167.137 26.1474 167.137 25.4211Z" fill="black"/>
<path d="M173.432 14.7684C174.51 15.2792 175.173 15.8293 175.611 16.9474C175.777 18.1756 175.755 19.0859 175.187 20.2007C174.167 21.3621 173.41 21.7116 171.883 21.8197C170.513 21.754 169.636 21.1569 168.711 20.1855C168.218 19.0763 168.155 18.1426 168.348 16.9474C169.438 14.7262 171.148 14.4899 173.432 14.7684Z" fill="black"/>
</svg>
