<svg width="196" height="35" viewBox="0 0 196 35" fill="none" xmlns="http://www.w3.org/2000/svg">
<g clip-path="url(#clip0_42_752)">
<mask id="mask0_42_752" style="mask-type:luminance" maskUnits="userSpaceOnUse" x="0" y="0" width="35" height="35">
<path d="M0 0H35V35H0V0Z" fill="white"/>
</mask>
<g mask="url(#mask0_42_752)">
<path d="M23.1186 24.4271H22.458V25.0804H23.1186V24.4271Z" fill="black"/>
<path d="M24.461 23.1088H23.7858V23.7563H24.461V23.1088ZM31.057 24.4271V23.7563H30.4037V22.4482H29.0766V21.789H27.7466V23.1088H25.7735V24.4286H25.1172V25.0805H24.461V27.055H23.7902V26.4192H22.4704V27.055H21.1491V29.0413H20.49V30.3655H19.8177V31.0173H19.1614V30.3655H17.8343V32.34H16.5189V33.005H15.2137V32.3488H13.8808V31.6765H11.896V33.0036H12.5566V33.6642H11.896V34.3248H14.54V34.984H21.1462L21.1506 34.319H23.1339V33.6715L24.4522 33.6657L24.4493 33.005H25.772V32.3459H27.0947V31.6853H27.7554V31.0261H29.0766V30.3655H27.0889V31.0305H26.4312V31.6896H25.7604V31.0305H26.4312V30.3655H25.1158V29.0413H24.4595V29.7063H23.7887V29.0413H24.4595V28.3865C24.4595 28.3865 27.7612 28.4011 27.7481 28.3865C27.7335 28.3734 27.7481 29.7034 27.7481 29.7034H28.4014V26.4075H30.3993V25.7367H29.7445V25.0761H29.7416V24.4286H31.0556L31.057 24.4271ZM22.4587 29.0428H21.8068V28.388L22.4587 28.385V29.0413V29.0428ZM24.461 30.3669V31.0319H25.1041V32.3503H24.4625L24.461 31.0319H23.7887V30.3669H24.461ZM22.4587 23.7709V24.43H21.8068V23.7709H22.4587Z" fill="black"/>
<path d="M4.62299 20.475H3.96529V21.1283H2.64258V19.81H4.61716L4.62299 20.4765V20.475Z" fill="white"/>
<path d="M16.5263 3.31337V3.98274H15.8584V4.64191H14.5386V3.98274H12.5684V3.31337H13.8823V2.66003H15.8657V3.31337H16.5263Z" fill="black"/>
<path d="M19.1654 0.667908H15.8638V1.3402H19.1654V0.667908Z" fill="black"/>
<path d="M12.5563 33.0051H11.8956V33.6657H12.5563V33.0051Z" fill="white"/>
<path d="M8.58333 27.0681V27.7258H5.28458V27.0666H4.62541V25.7498H3.96479V24.4271H3.3027V22.4481H2.64208V21.7773H1.98291V21.1283H1.99312V18.4916H2.64354V21.1312H3.96479V22.4496H4.62687V25.0891H5.94666V25.7512H6.60583V26.4089H7.26645V27.0696H8.58479L8.58333 27.0681ZM13.88 29.0543H13.2179V29.7077H13.88V29.0543Z" fill="white"/>
<path d="M11.9042 30.3655H10.5786V31.0276H11.9057L11.9042 30.3655Z" fill="white"/>
<path d="M11.8868 29.699H11.2407V30.3669H11.8868V29.699Z" fill="white"/>
<path d="M11.8955 33.005H10.5728V33.6642H11.8955V33.005Z" fill="black"/>
<path d="M10.576 32.3458L10.5731 33.0064L9.25329 33.0021V32.3429L10.576 32.3458ZM9.25183 31.6852H7.93058V32.3458H9.25183V31.6852ZM6.60933 29.7062H5.28662V30.3669H6.60933V29.7062ZM7.93058 31.026H7.26995V31.6867H7.93058V31.026Z" fill="black"/>
<path d="M7.26937 30.3654H6.60583V31.0275H7.26791L7.26937 30.3654ZM5.28604 29.0456H4.62541V29.7077H5.28604V29.0456ZM3.96333 27.0667H3.3027V27.7273H3.96333V27.0667ZM2.64208 25.0877H1.98291V25.7483H2.64354L2.64208 25.0877ZM4.62541 27.7258H3.96479V29.0456H4.62541V27.7258Z" fill="black"/>
<path d="M3.30313 25.7469H2.6425V27.0667H3.30313V25.7469ZM1.98188 23.1088H1.32125V25.0877H1.98188V23.1088ZM1.32125 21.1298H0.662083V23.1088H1.32125V21.1298ZM0.660625 13.8717H0V21.1284H0.660625V13.8717Z" fill="black"/>
<path d="M13.8804 29.7063V30.3655H13.2154V31.6765H11.8956V33.0036H10.5729L10.5759 32.3473L9.25314 32.343V31.6867H7.93044V31.0261H7.26981V30.3655H6.60627V29.7063H5.28502V29.0457H4.62439V27.7259H3.96231V27.0667H3.30169V25.7469H2.64106V25.0877H1.98335V23.1088H1.32127V21.1298H0.662103V21.1284L0.660645 13.8717H1.99502V21.1284H1.98189V21.7773H2.64252V22.4482H3.30314V24.4271H3.96523V25.7498H4.62585V27.0667H5.28502V27.7259H8.58377V28.3865H11.2409V30.3655H10.5788V31.0261H11.9059V30.3655H12.5534V29.7063H13.8804Z" fill="white"/>
<path d="M16.5185 29.7062V31.026H15.1987V31.6764H13.2153V30.3654H13.8803V29.7062H16.5185Z" fill="white"/>
<path d="M17.8354 30.3655V32.3401H16.5185V33.0051H15.2133V32.3488H13.8804V31.6765H15.1987V31.0261H16.5185V30.3655H17.8354Z" fill="white"/>
<path d="M16.5185 29.7063V26.4192H13.8789V25.7469H13.2183V27.7259H14.5381V28.3909H13.2183V29.0544H13.8803V29.7063H16.5185Z" fill="white"/>
<path d="M13.8803 27.7259H13.2183V28.3924H13.8803V27.7259Z" fill="white"/>
<path d="M14.5381 27.7259H13.8804V28.3924H14.5366L14.5381 27.7259Z" fill="white"/>
<path d="M19.1606 29.7063V30.3655H17.1772V28.3909H17.8335V29.0442H18.497V29.7063H19.1606Z" fill="white"/>
<path d="M17.1792 28.3909H16.5186V30.3655H17.1792V28.3909Z" fill="white"/>
<path d="M19.8174 30.3655H19.1611V31.0188H19.8174V30.3655Z" fill="white"/>
<path d="M20.4895 29.7063V30.3655H19.1609V29.7063H18.4974V29.0443H17.8338V28.3909H16.5184V26.4193H13.8788V25.747H13.2182V25.0863H12.5518V24.4301H13.2182V21.7905H13.8803V21.1284H14.538V25.747H15.2001V22.4511H15.8622V23.1118H16.517V23.7607H17.179V27.7274H19.1653V29.0399H19.8259V29.7063H20.4895Z" fill="white"/>
<path d="M11.8871 28.3865H11.2411V29.699H11.8871V28.3865ZM11.2411 27.7258H10.5615V28.3879L11.2411 28.3865V27.7258ZM10.5615 27.0696H9.90234V27.7258H10.5615V27.0696Z" fill="white"/>
<path d="M9.90238 26.4031H9.25342V27.071H9.90238V26.4031Z" fill="white"/>
<path d="M9.25336 26.4031H8.58398V27.0695H9.25336V26.4031Z" fill="white"/>
<path d="M8.58398 27.0682V28.3865H10.5615V27.7259H9.90232V27.0696L8.58398 27.0682Z" fill="white"/>
<path d="M13.2182 29.7063V26.4075H12.5518V27.7273H11.9043V27.0667H11.2437V28.3865H11.8882V30.3654H12.5547V29.7063H13.2182Z" fill="black"/>
<path d="M12.5518 27.0682H11.9043V27.7288H12.5518V27.0682Z" fill="white"/>
<path d="M12.5518 26.4075H11.9043V27.0696H12.5518V26.4075Z" fill="white"/>
<path d="M13.2182 25.0877H12.5518V26.4075H13.2182V25.0877ZM11.2422 27.0667V26.4075H11.9043V27.0696L11.2422 27.0681V27.0667Z" fill="white"/>
<path d="M11.2411 26.4075H10.5615V27.7259H11.2411V26.4075Z" fill="black"/>
<path d="M10.5615 26.4075H9.90234V27.0711H10.5615V26.4075Z" fill="black"/>
<path d="M9.25342 26.4046V25.7469C9.25342 25.7469 9.87467 25.7192 9.90238 25.7469C9.93154 25.7746 9.90238 26.4075 9.90238 26.4075L9.25342 26.4046Z" fill="white"/>
<path d="M10.5615 25.7469H9.90234V26.4076H10.5615V25.7469Z" fill="white"/>
<path d="M11.2411 25.7469H10.5615V26.4076H11.2411V25.7469ZM11.9046 25.7469H11.244V26.4076H11.9061L11.9046 25.7469Z" fill="white"/>
<path d="M13.8805 21.1284V21.789H13.2185V24.4286H12.552V26.4075H11.9045V25.7469H9.25325V26.4032H8.58534V27.0682H7.26555V26.4075H6.60638V25.7498H7.27138V25.0863H6.60638V23.765H5.28513V22.4511H4.62888L3.9668 22.4482V20.4765H4.62451L4.61867 19.81V19.8027H5.28513V17.8209H5.95596L5.9443 17.1602H6.61367L6.60638 16.5171H7.9393V15.8492H7.27138V13.8717H7.9393V15.1886H8.60138V14.5396L9.91388 14.5323V15.1944L10.5847 15.1886V15.8507H9.24596V17.1675H8.60138L8.5868 20.4707H11.8972V19.81H12.5535V20.4707L13.217 20.4765V21.1284H13.882H13.8805Z" fill="white"/>
<path d="M7.2695 19.1523H6.60596V19.8085H7.27096L7.2695 19.1523Z" fill="white"/>
<path d="M9.90232 21.7948H7.92773V22.4511H9.90232V21.7948Z" fill="white"/>
<path d="M10.5732 21.1284H9.90234V21.7978H10.5732V21.1284Z" fill="white"/>
<path d="M11.2421 21.1284H10.5713V21.7978H11.2421V21.1284Z" fill="white"/>
<path d="M11.897 21.1284H11.2407V21.7978H11.897V21.1284Z" fill="white"/>
<path d="M12.5515 21.1284H11.8953V21.7978H12.5515V21.1284ZM4.62549 22.4482V23.1103H5.28174V22.4511L4.62549 22.4482Z" fill="white"/>
<path d="M7.26949 23.1088H6.60449V23.765H7.26949V23.1088Z" fill="white"/>
<path d="M7.26949 22.451H6.60449V23.1102H7.26949V22.451Z" fill="white"/>
<path d="M4.62549 25.0863H5.94528V25.7483H7.26945V25.0863H6.60591V23.765H4.62549V25.0863Z" fill="white"/>
<path d="M19.1649 27.7287V27.055H18.4839V27.7273L19.1649 27.7287Z" fill="black"/>
<path d="M18.4839 27.055H17.8393V26.4192H17.1772V27.7273H18.4839V27.055Z" fill="black"/>
<path d="M19.1649 26.4192H18.4839V27.055H19.1649V26.4192ZM21.1483 27.055V28.3836H20.4891V29.0398H19.1649V27.055H19.8168V27.7259H20.4891V27.055H21.1483Z" fill="black"/>
<path d="M20.4897 29.0413H19.8262V29.7077H20.4897V29.0413ZM21.1489 28.3835H20.4897V29.0427H21.1489V28.3835Z" fill="black"/>
<path d="M18.4839 26.4192H17.8393V27.0551H18.4839V26.4192ZM21.1483 25.7469H17.1787V26.4192H21.1498V25.7469H21.1483Z" fill="black"/>
<path d="M24.4607 25.0805V26.4192H22.4701V27.055H19.1655V26.4192H21.1489V25.7469H21.8051V24.4286H22.4584V25.0805H24.4607Z" fill="black"/>
<path d="M20.4892 27.055H19.8154V27.7273H20.4892V27.055Z" fill="black"/>
<path d="M17.8306 23.7607H17.1787V25.7469H17.8306V23.7607Z" fill="black"/>
<path d="M21.8065 25.0804H17.8311V25.7484H21.8065V25.0804Z" fill="black"/>
<path d="M17.1797 23.1117H16.5176V23.7621H17.1797V23.1117Z" fill="white"/>
<path d="M23.7851 23.1087V23.7548H24.4603V24.4285H23.1187V23.7723H21.1499V23.1175H23.1187V22.4481H24.4603V23.1087H23.7851Z" fill="black"/>
<path d="M21.8061 23.7708V25.0804H21.1499V24.4285H20.4893V23.1175H21.1484V23.7708H21.8047H21.8061Z" fill="black"/>
<path d="M23.1186 23.7708H22.458V24.43H23.1186V23.7708ZM24.4603 24.4271H23.1186V25.0804H24.4603V24.4271Z" fill="black"/>
<path d="M24.4604 26.4192H23.7896V27.055H24.4604V26.4192Z" fill="black"/>
<path d="M25.1167 22.4481H24.4604V23.1087H25.1167V22.4481Z" fill="black"/>
<path d="M25.7729 23.1088H24.4604V24.4286H25.7729V23.1088Z" fill="black"/>
<path d="M25.1167 24.4271H24.4604V25.0804H25.1167V24.4271Z" fill="black"/>
<path d="M20.4896 23.1175V24.4286H21.1487V25.0804H17.831V23.7606H17.1792V23.1117H15.8623V22.4496H15.2002V20.4692H17.1792V22.4481H17.8442V23.1073L20.4896 23.1175Z" fill="black"/>
<path d="M17.8437 20.4692H17.1772V22.4481H17.8437V20.4692Z" fill="black"/>
<path d="M10.5829 16.5127H9.91211V17.1646H10.5829V16.5127Z" fill="black"/>
<path d="M21.1475 22.4481L21.1489 23.119H23.1191V22.4481H21.1475Z" fill="black"/>
<path d="M21.8022 21.7948H21.146V22.4496H21.8008L21.8022 21.7948Z" fill="black"/>
<path d="M5.2832 23.1088H4.62695V23.765H5.2832V23.1088Z" fill="white"/>
<path d="M26.4336 18.4902H25.7715V19.1436H26.4336V18.4902Z" fill="black"/>
<path d="M27.0928 18.4902H26.4336V19.1436H27.0928V18.4902Z" fill="black"/>
<path d="M27.0986 19.1436H26.4336V19.7969H27.0986V19.1436Z" fill="black"/>
<path d="M11.896 17.8296H11.231V18.496H11.896V17.8296ZM14.5399 25.7469H15.2005V21.7948H14.5399V25.7469Z" fill="black"/>
<path d="M19.165 21.7948H17.8438V22.4496H19.165V21.7948ZM19.8212 20.4692H17.8438V21.1298H19.8212V20.4692Z" fill="black"/>
<path d="M19.8212 21.1284H17.8438V21.7978H19.8212V21.1284Z" fill="black"/>
<path d="M17.8438 22.4481H18.5044V23.1117L17.8438 23.1087V22.4481Z" fill="black"/>
<path d="M18.5049 23.1117V22.4481H19.1655V23.1131H18.5049V23.1117Z" fill="black"/>
<path d="M19.1655 22.4481V23.1131L19.8218 23.116V22.4481H19.1655Z" fill="black"/>
<path d="M19.8218 21.7948H19.1655V22.4496H19.8218V21.7948ZM19.8218 22.4481H21.1489V23.119L19.8218 23.1161V22.4481Z" fill="black"/>
<path d="M20.4892 21.7948H19.8213V22.4496H20.4892V21.7948Z" fill="black"/>
<path d="M21.147 21.7948H20.4907V22.4496H21.147V21.7948Z" fill="black"/>
<path d="M21.8017 21.1284H19.8213V21.7978H21.8017V21.1284Z" fill="black"/>
<path d="M19.8217 20.4692V21.1283H20.4896V17.8252H19.8217V17.1646H19.1654V16.5127H17.8383V17.1719H18.5062V18.496H17.8398V17.8369H17.1719V19.1494H17.8427V20.4692H19.8217Z" fill="black"/>
<path d="M9.24462 15.8506H10.5834V16.5127H9.91254V17.8179H9.24608V19.1523H11.2265V19.8056H11.8973V20.4692H8.58691V17.1675H9.24608L9.24462 15.8506Z" fill="white"/>
<path d="M10.5829 19.1523H9.90771V19.8085H10.5829V19.1523Z" fill="white"/>
<path d="M13.2124 19.81H12.5518V20.4765H13.2124V19.81ZM13.2124 20.475H13.8803V21.1298H13.2153L13.2124 20.4765V20.475Z" fill="white"/>
<path d="M10.583 19.1523V18.496H11.8955V19.1523H14.5424V20.4765H15.2001V21.7948H14.538V21.1283H13.8803V20.4765H13.2124V19.81H11.2261V19.1523H10.583Z" fill="white"/>
<path d="M15.2002 20.4765V19.81H17.8442V20.4706L15.2002 20.4765Z" fill="black"/>
<path d="M17.8427 19.1479H17.1719V19.8115H17.8427V19.1479Z" fill="black"/>
<path d="M17.1717 19.81V19.1494H16.5213V17.1646H14.5365V17.8238H13.8802V18.4961H13.2123V17.1646H11.8954V16.5127H12.5517V15.8506H11.2188V16.5127H10.5829V17.1646H9.91211V17.8179H10.5829V18.4961H11.229V17.8296H11.894V19.1523H14.5409V20.4765H15.1971V19.81H17.1717Z" fill="black"/>
<path d="M10.5829 18.4961V17.8179H9.24414V19.1523H10.5829V18.4961ZM11.2187 15.8506H10.5829V16.5127H11.2187V15.8506Z" fill="black"/>
<path d="M19.1655 16.5127H20.4897V15.8507H21.1401V14.528H21.8139V15.8507H23.8045V16.5127H25.1024V15.8536H25.7659V14.5309H26.4382V16.5127H27.0828V17.1588H27.7566V18.4902H20.4897V17.8252H19.8218V17.1646H19.1655V16.5127Z" fill="black"/>
<path d="M21.1401 18.4917V17.8311H23.1322V18.4975L21.1401 18.4902V18.4917Z" fill="black"/>
<path d="M23.1318 18.4975V17.8311H24.4706V18.4902L23.1318 18.4975Z" fill="black"/>
<path d="M27.0932 17.8311H26.4253V18.4902H27.0932V17.8311Z" fill="black"/>
<path d="M26.4248 17.831H25.7715V17.1631H27.7548V18.4902H27.0927V17.831H26.4248Z" fill="black"/>
<path d="M23.1191 21.7948H21.8022V22.4496H23.1191V21.7948Z" fill="black"/>
<path d="M21.8018 18.4902H20.4893V19.7954H21.8018V18.4902ZM21.8018 20.4692H20.4893V21.1298H21.8018V20.4692Z" fill="black"/>
<path d="M21.8018 20.4692V21.1284H22.4609V19.7955H20.4893V20.4692H21.8018Z" fill="black"/>
<path d="M24.4608 21.7963V22.4482H23.1191V21.1284H23.79V21.7963H24.4608Z" fill="black"/>
<path d="M21.8022 21.7963H23.1191V21.1283H23.79V20.4692H22.4614V21.1283H21.8022V21.7963Z" fill="black"/>
<path d="M22.4614 18.4902H21.8022V19.1436H22.4614V18.4902Z" fill="black"/>
<path d="M22.4614 19.1436H21.8022V19.7969H22.4614V19.1436Z" fill="black"/>
<path d="M23.1318 18.4902H22.4609V19.1436H23.1318V18.4902Z" fill="black"/>
<path d="M23.1318 19.7955H22.4609V20.4707H23.1318V19.7955Z" fill="black"/>
<path d="M23.7895 20.4692V19.1421H24.4603V18.4902H23.1318V19.1421H22.4609V19.7954H23.1318V20.4692H23.7895Z" fill="black"/>
<path d="M25.1182 18.4902H24.4619V19.1436H25.1182V18.4902Z" fill="black"/>
<path d="M24.4604 19.1436H23.7896V19.7969H24.4604V19.1436Z" fill="black"/>
<path d="M25.1181 19.7955H23.791V20.4707H25.1181V19.7955Z" fill="black"/>
<path d="M29.076 21.1284V21.789H27.746V23.1088H25.7729V22.4482H24.4604V21.7963H23.7896V20.4692H24.4531V21.1284H25.7729V20.4692H25.1166V19.7954H24.4604V19.1436H25.1166V18.4902H25.7729V19.1421H26.4335V19.7954H27.0985V20.4692H27.746V21.1284H29.076Z" fill="black"/>
<path d="M25.1186 20.4692H24.4536V21.1298H25.1186V20.4692Z" fill="black"/>
<path d="M25.7734 20.4692H25.1172V21.1298H25.7734V20.4692Z" fill="black"/>
<path d="M25.7734 21.1284H25.1172V21.789H25.7734V21.1284Z" fill="black"/>
<path d="M25.7734 22.4481H25.1172V23.1102H25.7734V22.4481Z" fill="black"/>
<path d="M27.0957 21.7962H26.4336V22.4495H27.0942L27.0957 21.7962Z" fill="black"/>
<path d="M27.7568 18.4902H27.0933V19.7954H27.7568V18.4902Z" fill="black"/>
<path d="M27.0933 19.7955H27.7568V20.4707H27.1006L27.0933 19.7955ZM28.4189 20.4692L27.7568 20.4707V21.1298H28.4189V20.4692Z" fill="black"/>
<path d="M28.4189 19.7955H27.7568V20.4707H28.4189V19.7955Z" fill="black"/>
<path d="M26.4394 14.5308H27.0928V15.8492H27.7563V16.5083H28.414V17.1646H29.0761V16.5083H30.4032V17.831H27.7563V17.1631H27.0826V16.5127H26.438L26.4394 14.5308Z" fill="white"/>
<path d="M30.4033 17.1689H29.7412V17.8325H30.4033V17.1689Z" fill="white"/>
<path d="M27.7568 17.8311H29.7402V20.4706H29.0766V21.1283H28.4189V19.7954H27.7568V17.8311Z" fill="black"/>
<path d="M29.7397 20.4692H29.0762V21.1298H29.7412L29.7397 20.4692Z" fill="black"/>
<path d="M29.7397 21.1284H29.0762V21.7978H29.7412L29.7397 21.1284Z" fill="black"/>
<path d="M30.4031 16.5083H29.076V17.1646H28.414V16.5083H27.7548V15.8477H27.0927V14.5308H25.7656V13.8687C25.7656 13.8687 28.4198 13.8571 28.4198 13.8687V14.5294H29.0775V13.8629H30.4031V14.5294H31.0579V15.19H31.7229V16.5127H31.0579V17.166H30.4017V16.5069L30.4031 16.5083Z" fill="white"/>
<path d="M30.4033 13.8644H29.0776V14.5323H30.4033V13.8644ZM31.0566 14.5308H30.4033V15.19H31.0566V14.5308Z" fill="white"/>
<path d="M28.4198 14.5308V13.1979H29.0775V12.5475H30.4031V13.1979H31.7229V15.1915H31.0565V14.5308H30.4031V13.8644H29.0775V14.5308H28.4198ZM26.4394 9.92688H25.7656V11.8927H26.4379L26.4394 9.92688Z" fill="black"/>
<path d="M25.7661 8.59399H25.1143V9.92691H25.7661V8.59399Z" fill="black"/>
<path d="M25.1141 9.25458H21.8081V9.92687H25.1141V9.25458Z" fill="black"/>
<path d="M23.1264 9.92692V9.25608H22.4701V8.594H21.1357V7.93775H20.4795V7.27712H19.8247V6.60629H20.4824V5.94275H22.4701V7.26983H23.7797V7.93629H24.4447V9.92546L23.1264 9.92692Z" fill="white"/>
<path d="M31.723 9.25748V10.5729H31.0478V9.92685H29.079V9.25602H28.4184V9.92685H26.4395V9.25602H27.0986V8.60414H27.7636V7.93768H29.7411V8.59393H30.4032V9.25748H31.723Z" fill="white"/>
<path d="M14.5366 17.1734H13.8803V17.8252H14.5366V17.1734ZM13.8803 15.8506H13.2124V16.5127H13.8803V15.8506Z" fill="white"/>
<path d="M15.8608 15.8506H13.8804V16.5127H15.8608V15.8506Z" fill="black"/>
<path d="M13.2124 16.5127V18.496H13.8803V17.1733H14.5366V16.5127H13.2124Z" fill="white"/>
<path d="M14.5361 17.1748V16.5127H15.1997V17.166L14.5361 17.1748Z" fill="white"/>
<path d="M11.2188 15.8507H12.5531V16.5127H11.8969V17.1646H13.2123V15.8507H15.8606V15.1842H13.2123V13.8717H12.5502V15.1915H11.2188V15.8507Z" fill="black"/>
<path d="M15.8608 15.8506V16.5127H15.2002V17.1646H16.5214V19.1479H17.1719V17.8369H18.5062V17.1719H17.8398V15.8506H15.8608Z" fill="black"/>
<path d="M18.5063 17.8369H17.8398V18.4975H18.5063V17.8369Z" fill="white"/>
<path d="M15.8608 15.8506V14.5308H17.8442V15.19H18.5063V15.8506H19.1625V16.5127H17.8398V15.8506H15.8608Z" fill="black"/>
<path d="M17.8456 14.5308H15.8608V15.1856H17.8442V14.5308H17.8456Z" fill="black"/>
<path d="M15.8608 15.1842V14.5309H17.1733V13.8717H13.8789V14.5309H14.5352V15.1842H15.8593H15.8608Z" fill="white"/>
<path d="M13.2124 13.8717V15.1842H14.5366V14.5309H13.8803V13.8717H13.2124Z" fill="black"/>
<path d="M17.8456 13.8717H17.1719V14.5323H17.8456V13.8717ZM17.8456 14.5309V15.1915H18.5062V14.528L17.8456 14.5309Z" fill="black"/>
<path d="M17.8452 14.5309H18.5058V15.8507H19.1621V16.5127H20.4892V15.8507H19.83V15.1842H19.165V14.5309H18.5058V13.8717H17.8452V14.5309Z" fill="white"/>
<path d="M13.8803 13.8717V13.2067H13.2124V12.5505H13.8745V11.8898H14.5366V13.1936H19.1653V13.8644H20.4895V13.2184H23.1189V14.5309H25.1139V15.1842H21.8137V14.528H21.1399V15.193H20.4895V14.5309H18.5062V13.8717H13.8803Z" fill="white"/>
<path d="M19.1655 14.5308H20.4897V15.8492H19.8305V15.1842H19.1655V14.5308Z" fill="white"/>
<path d="M21.1397 15.1929H20.4893V15.8506H21.1397V15.1929ZM21.8134 15.1841H25.7655V15.8535H25.102V16.5127H23.804V15.8506H21.8134V15.1841Z" fill="white"/>
<path d="M25.7661 14.5308H25.1143V15.1856H25.7661V14.5308Z" fill="white"/>
<path d="M25.7661 13.8702H25.1143V14.5323H25.7661V13.8702Z" fill="white"/>
<path d="M25.7658 13.8702V12.5475H23.7897V11.9073H23.1276V11.2292H21.1589V11.9073H17.1835V11.2292H15.8564V10.5729H15.2001V11.2161H14.5322V13.1936H19.1654V13.8644H20.4895V13.2184H23.1189V14.5309H25.1139V13.8702H25.7658Z" fill="white"/>
<path d="M25.7656 13.8702V12.5475H26.4379V13.8644L25.7656 13.8702Z" fill="white"/>
<path d="M26.4395 12.5475V11.8912H27.0972V12.5519H27.7563V13.2081H28.4199V13.8702H26.4395V12.5475Z" fill="black"/>
<path d="M30.4033 12.5475V11.8781H31.7231V9.92688H32.3706V11.2365H33.0575V12.5475H33.6992V13.2154H33.0458L33.0487 14.5308H31.7231V13.1979H30.4033V12.5475Z" fill="black"/>
<path d="M30.4033 17.831H29.7412V19.1435H30.4033V17.831ZM31.0566 17.1689H30.4033V17.831L31.0566 17.8325V17.1689Z" fill="black"/>
<path d="M31.0567 17.169V16.5142H31.7231V18.4976H31.0567V19.1436H30.4033V17.8311H31.0567V17.169Z" fill="black"/>
<path d="M31.7231 15.193V16.5142H33.0502V15.8536H32.3721V15.1886L31.7231 15.193Z" fill="black"/>
<path d="M33.0503 15.8521V15.1929H34.3657V16.5142H33.0503V15.8536V15.8521Z" fill="black"/>
<path d="M33.0507 15.1886H32.3726V15.8551H33.0507V15.1886Z" fill="black"/>
<path d="M31.7231 14.5308V15.1929H33.0502V14.5308H31.7231Z" fill="white"/>
<path d="M32.3749 19.1436V19.7955H31.723V20.4692H31.0566V21.7963H30.4033V22.4482H29.0762V21.7963H29.7412V19.1422H30.4033V19.7969H31.0566V19.1436H32.3749Z" fill="black"/>
<path d="M31.0567 19.1436H30.4033V19.7969H31.0567V19.1436Z" fill="black"/>
<path d="M33.0507 18.496H32.377V19.1435H33.0507V18.496Z" fill="black"/>
<path d="M33.0507 17.8311H32.377V18.4975H33.0507V17.8311Z" fill="white"/>
<path d="M33.7079 17.1689V21.7962H33.0502V21.1283H31.7231V20.4692H32.3765V19.7969H33.0502V17.1689H33.7079Z" fill="black"/>
<path d="M33.0507 19.1436H32.377V19.7969H33.0507V19.1436Z" fill="black"/>
<path d="M32.375 19.7955H31.7231V20.4707H32.3764L32.375 19.7955ZM31.7231 20.4707L31.0566 20.4692V21.1298H31.7231V20.4707Z" fill="black"/>
<path d="M33.0502 21.1284V21.7963H32.3764V22.4482H31.0566V21.7963H31.7231V21.1284H33.0502Z" fill="black"/>
<path d="M31.7231 21.1284H31.0566V21.7978H31.7231V21.1284Z" fill="black"/>
<path d="M31.0567 21.7962H30.4033V22.4495H31.0567V21.7962Z" fill="black"/>
<path d="M33.0507 21.7962V23.7562H30.4023V22.4481H32.3769V21.7962H33.0507Z" fill="black"/>
<path d="M33.0501 21.7962V23.1087H31.0565V22.4481H32.3763V21.7962H33.0501ZM32.3749 23.7562V25.7468H31.7274V27.0666H31.0565V27.7272H30.4003V29.0456H29.7382V29.7062H29.0703V30.3654H27.749V29.7033H28.4024V27.0608H29.0776V26.4075H30.4003V25.7366H29.7455V25.076H30.4003V24.4285H31.0565V23.7562H32.3749Z" fill="black"/>
<path d="M30.4007 24.4271H29.7445V25.076H30.4007V24.4271ZM29.0795 26.4075H28.4028V27.0623H29.078V26.4075H29.0795Z" fill="black"/>
<path d="M33.0449 25.076H32.3755V25.7483H33.0434L33.0449 25.076Z" fill="white"/>
<path d="M32.3749 25.7469H31.7274V27.0667H32.3764L32.3749 25.7469ZM31.7274 27.0667V27.7274H31.0566V27.0667H31.7274ZM31.0566 27.7274H30.4003V29.0472H31.0566V27.7274ZM29.7397 29.7063H29.0703V30.3669H29.7397V29.7063ZM30.4003 29.0472V29.7078L29.7397 29.7063V29.0472H30.4003Z" fill="white"/>
<path d="M22.4585 28.3835V29.0427H21.8066V28.3865L22.4585 28.3835Z" fill="black"/>
<path d="M27.749 29.7034V30.3655H25.1167V29.0413H24.4604V28.3865C24.4604 28.3865 27.7621 28.4011 27.749 28.3865C27.7344 28.3734 27.749 29.7034 27.749 29.7034Z" fill="black"/>
<path d="M27.0898 29.0471H26.4321V31.0305H27.0884L27.0898 29.0471Z" fill="black"/>
<path d="M24.4604 29.0413H23.7896V29.7077H24.4604V29.0413ZM24.4604 30.3654H23.7896V31.0304H24.4604V30.3654ZM25.1035 31.0304H24.4604L24.4618 32.3488H25.1035V31.0304Z" fill="black"/>
<path d="M26.4326 31.0305H25.7617V31.6911H26.4326V31.0305Z" fill="black"/>
<path d="M27.0972 11.8927V12.5519H27.7563V13.2081H29.0776V12.5475H30.4032V11.8781H31.723V10.5729H30.4032V11.2394H29.7411V11.8927H27.7476V11.2292H27.0972V9.92688H26.438V11.8927H27.0972Z" fill="white"/>
<path d="M27.0971 9.92688H28.4198V9.25604H29.0804V9.92688H31.0477V10.5729H30.4031V11.2394H29.741V11.8927H27.7475V11.2292H27.0971V9.92688ZM26.4394 11.8927H25.7656V12.549H26.4379L26.4394 11.8927Z" fill="white"/>
<path d="M21.8081 11.2292V10.5729H23.8016V11.2292H24.4637V11.8927H25.766V12.5475H23.79V11.9073H23.1279V11.2292H21.8081Z" fill="white"/>
<path d="M21.8081 10.5729V9.91229L25.766 9.92688V11.8927H24.4637V11.2292H23.8016V10.5729H21.8081Z" fill="white"/>
<path d="M25.7661 10.5744H25.1143V11.2307H25.7661V10.5744Z" fill="white"/>
<path d="M27.0972 9.25749V9.92833H27.752V9.25458L27.0972 9.25749Z" fill="black"/>
<path d="M31.0596 8.59399H30.4033V9.25754H31.0596V8.59399Z" fill="black"/>
<path d="M27.0971 7.93768V9.25748H26.4379V9.92685H25.7656V7.93768H27.0971Z" fill="black"/>
<path d="M27.7622 7.93774H27.0972V8.6042H27.7622V7.93774Z" fill="black"/>
<path d="M13.2123 13.2111V13.8717H12.5503V15.1929H11.2188V14.5309H11.8809V13.8717H10.5728V12.5519H9.9165V11.2292H11.2348V11.9088H11.8823V12.5519H12.5605V13.2111H13.2123Z" fill="black"/>
<path d="M13.8803 13.2095H13.2124V13.8731H13.8803V13.2095Z" fill="white"/>
<path d="M11.8808 13.8717H11.2188V14.5323H11.8808V13.8717Z" fill="white"/>
<path d="M8.59224 12.5519V13.211H7.93016L7.93745 13.8717H7.26953V13.2125H7.93016V12.5533L8.59224 12.5519Z" fill="white"/>
<path d="M11.2188 13.8717H10.583V14.5323H11.2188V13.8717Z" fill="white"/>
<path d="M11.2187 14.5309V15.8507H10.5829V15.1944H9.91205V14.5382H8.59955V15.1886H7.93747L7.93018 13.2126H9.25434V12.5534H10.5814V14.5324H11.2187V14.5309Z" fill="white"/>
<path d="M9.91352 13.8717H9.24561V14.5396H9.91352V13.8717Z" fill="black"/>
<path d="M7.93745 15.8506H7.26953V16.52H7.93745V15.8491V15.8506Z" fill="white"/>
<path d="M21.808 9.25458H21.1372V9.91374H21.808V9.25458Z" fill="black"/>
<path d="M21.8076 9.91229H20.4834V10.5744H21.8076V9.91229Z" fill="black"/>
<path d="M2.6397 15.193V16.5127H3.28137V17.8369H2.64262V18.4902H1.99512V13.8717H3.96387V15.193H2.6397ZM5.28366 18.4902H2.64262L2.64408 19.81H5.28366V18.4902Z" fill="black"/>
<path d="M5.28374 17.8311H4.6377V18.4917H5.28228L5.28374 17.8311ZM7.26999 14.5396V16.5186H6.60645V17.1602H5.9429V17.8223L5.28374 17.8311V16.5098H5.94436V15.1929H6.60353V14.5396H7.26999Z" fill="white"/>
<path d="M5.94432 15.1929H5.28369V15.8506H5.94432V15.1929Z" fill="white"/>
<path d="M3.96527 16.5186V17.1646H4.63902V18.4902H2.64256V17.8369H3.27985V16.5127H2.63818V15.1929H3.96527V15.8492H4.63902V16.5186H3.96527Z" fill="black"/>
<path d="M7.26992 13.2111V14.5381H6.60346V15.1929H5.28367V15.8492H5.9443V16.5098H5.28367V17.8311H4.63763V17.1646H3.9668V16.5186H4.64055V15.8506H3.9668V15.1929H4.64055V13.8717H5.28513V13.2125H7.27138L7.26992 13.2111Z" fill="black"/>
<path d="M1.32273 11.8912H0.660645V13.8717H1.32273V11.8912Z" fill="black"/>
<path d="M2.6397 12.5519H1.99512V13.8717H2.63824L2.6397 12.5519Z" fill="white"/>
<path d="M3.96527 9.90936V11.8927H3.30173V13.8717H2.63818V11.2292H3.29881V9.91082L3.96527 9.90936ZM7.26985 13.211H6.60193V11.9073H8.59256V12.5519H7.93048V13.211H7.26985Z" fill="black"/>
<path d="M6.60205 12.5519H5.9458V13.211H6.60205V12.5519Z" fill="black"/>
<path d="M15.1955 6.61794V7.27419H14.5393V7.93627H13.2122V8.59252H12.5559V9.25169H9.91198V9.91669H9.25281V10.5744H8.5849V11.2306H7.2724V11.9102H6.60302V12.5534H5.94677V13.2125H4.63281V11.8927H5.29781V11.2292H5.94531V10.5715H6.61615V9.91523H7.26656V9.24585H9.2426V8.58085H9.91635V7.93919H11.2332V7.26689H11.8997V6.60919H12.5516V5.95148H13.883V6.61648L15.1955 6.61794Z" fill="white"/>
<path d="M5.28364 13.2125V13.8717H4.6376V15.1929H3.96676V13.8717H3.30322V11.8912H4.63322V13.2125H5.2851H5.28364Z" fill="black"/>
<path d="M7.93201 8.59399V9.24733H7.26555V9.91233H6.61513V10.5686H5.9443V11.2292H5.2968V11.8927H3.9668V11.2292H4.63326V10.573H5.28659V9.2692H5.94867V8.59399H7.93201Z" fill="white"/>
<path d="M11.8997 5.95291V7.26832H11.2318V7.93916H9.91637V8.58374H9.24262V9.24728H7.93304V8.59395H6.60596V7.92749H7.26804V7.27416H7.93304V6.61499H9.24554V5.95291H9.91491V5.30249H11.2347V5.95291H11.8997Z" fill="white"/>
<path d="M9.91395 5.30249V5.95291H9.24457V6.61499H7.93207V7.27416H7.26707V7.92749H6.60645V8.59395H5.9502V7.27416H6.60645V6.61499H7.25832V5.95291H7.93353V5.30249H9.91395Z" fill="white"/>
<path d="M9.91404 4.64337H9.25195V5.304H9.91404V4.64337Z" fill="white"/>
<path d="M12.5625 5.95291H11.8989V6.61207H12.5625V5.95291ZM13.2231 5.30249H12.5625V5.95291H13.2231V5.30249Z" fill="white"/>
<path d="M13.8833 5.30249V5.95582L13.2227 5.95291V5.30249H13.8818H13.8833Z" fill="white"/>
<path d="M14.5394 4.64189V5.95294H13.8832V5.30252H12.5619V5.95294H11.2334V5.30252H9.91357V4.64335H10.5771V3.98273H13.8773V4.64189H14.5394Z" fill="white"/>
<path d="M13.8818 5.95291V6.61791H15.1943V5.30249H14.5381V5.95291H13.8818Z" fill="white"/>
<path d="M9.25432 12.5519V11.2292H9.91495V9.91522H9.25141V10.5729H8.58495V11.2292H7.26953V11.9088H8.59224V12.5519H9.25432Z" fill="black"/>
<path d="M9.25486 12.5519H8.59277V13.211H9.25486V12.5519Z" fill="white"/>
<path d="M9.91551 11.2292H9.25488V12.5519H9.91551V11.2292Z" fill="black"/>
<path d="M9.91064 9.2517L9.91648 11.2292H11.2348V11.9088H11.8823V12.5519H12.5604V13.2111H13.2138V10.573H14.5336V9.91524H13.8831V9.2517H13.2123V8.59399H12.559V9.2517H9.91064Z" fill="black"/>
<path d="M10.5728 9.91672H11.2348V9.25317H10.5728V9.91672Z" fill="black"/>
<path d="M13.2124 12.5519V11.8898H12.5518V12.5534L13.2124 12.5519Z" fill="black"/>
<path d="M13.8745 11.8898H13.2124V12.5519H13.8745V11.8898Z" fill="white"/>
<path d="M13.8745 10.5729H13.2124V11.2292H13.8745V10.5729Z" fill="black"/>
<path d="M13.8745 11.2292H13.2124V11.8913H13.8745V11.2292Z" fill="white"/>
<path d="M13.875 11.8898V10.5729H14.5327V9.91522H16.519V10.5729H15.2021V11.2161H14.5327V11.8898H13.875Z" fill="white"/>
<path d="M13.8832 7.93628H13.2124V9.2517H13.8832V7.93628ZM17.8455 8.59399V9.2517H17.1893V9.9167H13.8832V9.2517L15.8651 9.25315V8.59545H17.8484L17.8455 8.59399Z" fill="black"/>
<path d="M15.8579 10.5729H17.8456V9.91522H18.5062V11.2277H19.8246V11.9073H17.1821V11.2292H15.8579V10.5729Z" fill="white"/>
<path d="M16.5186 10.5729V9.91519H17.1894V9.25165H19.1654V10.5729H18.5063V9.91519H17.8456V10.5729H16.5186Z" fill="white"/>
<path d="M21.1576 11.9073V11.2292H21.808V10.5729H20.4911V11.2409H19.8247V10.5729H18.5063V11.2292L19.8247 11.2409V11.9073H21.1576Z" fill="white"/>
<path d="M20.4839 9.91229H19.1655V10.5744H20.4853V9.91229H20.4839Z" fill="black"/>
<path d="M20.4897 10.5729H19.8247V11.2409H20.4897V10.5729Z" fill="black"/>
<path d="M17.1748 7.93628L17.1689 8.59253H15.8637V9.2517H13.8818V7.93628H17.1748Z" fill="black"/>
<path d="M17.1748 7.27271H15.8638V7.93625H17.1748V7.27271ZM17.1748 7.93625H17.8456V8.59541H17.169L17.1748 7.93625ZM18.5063 8.59396L17.8456 8.59541V9.25312H18.5063V8.59396Z" fill="black"/>
<path d="M19.1611 8.59399H18.5049V9.25316H19.1611V8.59399Z" fill="black"/>
<path d="M19.1611 8.59399V9.91233H20.4853V9.2517H19.8247V8.59399H19.1611Z" fill="black"/>
<path d="M19.8247 8.59399H21.1372V9.91233H20.4853V9.2517H19.8247V8.59399Z" fill="black"/>
<path d="M19.8242 7.27856H20.479V7.93773H21.1353V8.59398H22.4696V9.25461H21.1353V8.59398H20.479V7.93773H19.8228L19.8242 7.27856Z" fill="white"/>
<path d="M20.4805 7.93768H19.8213V8.59393H20.4805V7.93768Z" fill="black"/>
<path d="M14.5395 3.98272H13.8774V4.64335H14.5381V3.98272H14.5395ZM25.1168 4.64189V5.95439H24.4445V5.29814H23.1262V4.64189H21.8093V5.29814H21.1502V5.94418H20.4822V6.60772H19.8216V8.59397H19.161V7.93335H18.5047V8.59251H17.8456V7.93481H17.1747V7.27126H15.8637V7.93481H14.5395V7.27126H15.1958V6.60918H15.852V5.95876H15.1958V5.30251H14.5395V4.64043H15.8579V3.98126H16.5258V3.31189H17.1762V3.98126H17.8499V4.64043H17.1762V5.29668H16.5199V6.60772H17.8441V5.95147H18.5062V5.29522H19.8274V4.63314H20.4837V3.97689H21.8108V3.31189H23.132V3.97251H23.7912V4.64043H25.1183L25.1168 4.64189Z" fill="black"/>
<path d="M19.161 7.93339H18.5048V8.59402H19.161V7.93339ZM15.8521 5.96027H15.1958V6.61214H15.8521V5.96027Z" fill="black"/>
<path d="M25.1142 9.25466V8.59403H25.766V7.27716H25.1171V6.60632H22.4702V7.27132H23.7798V7.93778H24.4448V9.25466H25.1142Z" fill="white"/>
<path d="M22.4717 4.64185H21.8096V5.2981H22.4717V4.64185Z" fill="white"/>
<path d="M23.1265 4.64185H22.4702V5.2981H23.1265V4.64185Z" fill="white"/>
<path d="M23.7909 5.29669V5.9544L21.1514 5.94565V5.29669H23.7909Z" fill="white"/>
<path d="M22.4702 5.94419V6.60628H24.4448V5.29669H23.7915V5.95294L22.4702 5.94419Z" fill="white"/>
<path d="M25.1171 5.95441H24.4448V6.60774H25.1171V5.95441Z" fill="white"/>
<path d="M27.0976 7.27132V7.93778H25.7661V7.27716H25.1172V6.60632H26.4326V7.27132H27.0976Z" fill="black"/>
<path d="M18.5063 5.2981V5.95435H17.8442L17.8413 5.2981H18.5063Z" fill="black"/>
<path d="M23.7961 1.99943V2.66881H21.8098V3.97693H20.4842V4.63318H19.8279V5.29818H18.5067L18.5125 4.64193H19.1659V3.98276H19.8279V2.65131H18.5038V1.99943H17.1811V2.66006H12.5684V1.99797H13.8911V1.33881H21.8113V1.99943H23.7961ZM17.8446 5.95297H17.1738V6.61797H17.8446V5.95297Z" fill="black"/>
<path d="M19.8275 2.65126V3.98272H19.1654V4.64188H18.5121V5.29813H17.8457V5.95438H17.1748V6.61793H16.5215V5.29813H17.1777V4.64188H17.8486V3.98272H17.1777V3.31334H15.8652V2.66001H17.1807V1.99792H18.5034V2.6498L19.8275 2.65126Z" fill="black"/>
<path d="M18.4995 3.31335H17.8506V3.98419H18.4995V3.31335Z" fill="black"/>
<path d="M28.4377 5.29668V5.95439H25.1171C25.0937 5.95439 25.1171 4.64189 25.1171 4.64189H23.79V3.97397H23.1337V3.31335H21.8096V2.66876H23.7958V3.31335H24.4448V3.98272H26.4383V5.29668H28.4377Z" fill="black"/>
<path d="M29.7401 7.93482V7.93774H27.0961V7.27128H26.4311V6.60628H25.1157V5.95441H28.4378V6.60628H29.0751V7.93482H29.7401Z" fill="black"/>
<path d="M35.0277 14.525V21.1298H34.3656V23.1073H33.7167V24.4285H33.0429V25.076H32.3765V23.7562H33.0502V21.7962H33.7065V16.5142H34.3656V15.1929H33.0502L33.0458 13.2154H33.6977V12.5475H33.0575V11.2365H32.3721V9.92687H31.7231V9.25603H31.0596V8.59395H29.7398V7.93333H29.0748V6.60624H28.4375V3.97687H29.0879V4.63312H29.7383V5.29374L30.3975 5.2952V5.95437H31.0567V7.26249H31.7333V7.93333H32.3867L32.3896 9.24291H33.0429V10.551H33.7167V11.8971H34.354V14.525H35.0277Z" fill="black"/>
<path d="M31.7231 16.5142V18.4976H31.0566V19.1436H32.3764V17.8311H33.0502V17.169H33.7064V16.5142H31.7231Z" fill="black"/>
<path d="M23.7954 2.66876H25.1167V3.31335H25.7554V3.98272H24.4429V3.31335H23.7954V2.66876ZM26.4394 3.98272H27.0854V4.64189H28.4373V5.29814H26.4394V3.98272Z" fill="black"/>
<path d="M28.438 3.97688V4.64188H27.0862V3.98271H25.7562V3.31334H25.1174V2.66875H23.7962V1.99792H21.8128V1.33875H19.166V0.667921H15.8643V1.33875H13.8912V1.99938H12.5684V2.66H11.9122V3.31334H9.91428V3.98271H8.61199V4.64188H7.27762V5.3025H6.60678V5.95292H5.94762V6.60917H5.2797V7.92605H3.9672V9.2473H3.30366V11.2292H2.64012V12.5519H1.99699V13.8717H1.32324V10.5729H1.98241V9.25459H2.64158V7.93334H3.30658V7.27709H3.96283V5.95H4.62637V5.29375H5.28408V4.63021H5.94616V3.97396H7.27324V3.31625H7.93095V2.64834H9.25366V1.99792H10.5734V1.33584H11.8962V0.676671H13.8795V0.0145874H21.1464V0.675212H23.1297V1.33438H25.113V1.995H25.7737V2.65417H27.0949L27.092 3.31334H27.7555V3.97396L28.4366 3.97542L28.438 3.97688Z" fill="black"/>
<path d="M13.8834 2.66003V3.31336H12.568V3.98274H10.5759V4.64336H9.25176V5.30253H7.93343V5.95294H7.25822V6.61503H6.60635V7.27419H5.9501V9.26919H5.28656V10.5729H4.63322V11.2292H3.96676V9.9094H3.30322V9.24586H3.96676V7.92461H5.27926V6.60919H5.9501V5.95149H6.60635V5.30107H7.27718V4.64044H8.61301V3.98128H9.91531V3.3119H11.9132V2.65857H13.8834V2.66003Z" fill="black"/>
</g>
</g>
<g clip-path="url(#clip1_42_752)">
<path d="M48.431 28.7816H52.0578C52.3466 28.7816 52.5391 28.5891 52.5391 28.3004V19.7633H60.7874V28.3004C60.7874 28.5891 60.9799 28.7816 61.2687 28.7816H64.8955C65.1843 28.7816 65.3768 28.5891 65.3768 28.3004V6.79581C65.3768 6.50706 65.1843 6.31456 64.8955 6.31456H61.2687C60.9799 6.31456 60.7874 6.50706 60.7874 6.79581V15.7208H52.5391V6.79581C52.5391 6.50706 52.3466 6.31456 52.0578 6.31456H48.431C48.1422 6.31456 47.9497 6.50706 47.9497 6.79581V28.3004C47.9497 28.5891 48.1422 28.7816 48.431 28.7816ZM75.7018 29.1666C77.9155 29.1666 79.9383 28.525 81.2872 27.1775C81.5745 26.9194 81.608 26.6962 81.4476 26.4702L80.2591 24.8339C80.0987 24.6094 79.9382 24.5773 79.7137 24.7056C78.4303 25.4435 77.2739 25.6681 76.0532 25.6681C73.5187 25.6681 71.8824 24.5773 71.4012 22.5866H80.9649C82.3445 22.5866 82.6974 21.7204 82.6974 20.1804C82.6974 16.1991 79.9383 12.67 75.1549 12.67C70.3089 12.67 67.067 16.2327 67.067 20.8541C67.067 25.6039 70.5349 29.1666 75.7018 29.1666ZM71.3355 19.4746C71.722 17.3877 73.2299 16.3289 75.1885 16.3289C77.0814 16.3289 78.493 17.3877 78.7497 19.4746H71.3355ZM84.5495 28.7816H88.048C88.3368 28.7816 88.5293 28.5891 88.5293 28.3004V6.31456C88.5293 6.02581 88.3368 5.83331 88.048 5.83331H84.5495C84.2607 5.83331 84.0682 6.02581 84.0682 6.31456V28.3004C84.0682 28.5891 84.2607 28.7816 84.5495 28.7816ZM91.2185 28.7816H94.7185C95.0072 28.7816 95.1997 28.5891 95.1997 28.3004V6.31456C95.1997 6.02581 95.0072 5.83331 94.7185 5.83331H91.2185C90.9312 5.83331 90.7372 6.02581 90.7372 6.31456V28.3004C90.7372 28.5891 90.9312 28.7816 91.2185 28.7816ZM104.854 29.1666C109.572 29.1666 113.07 25.5719 113.07 20.9183C113.07 16.2648 109.572 12.67 104.854 12.67C100.104 12.67 96.6055 16.2648 96.6055 20.9183C96.6055 25.5719 100.104 29.1666 104.854 29.1666ZM100.874 20.9183C100.874 18.3516 102.607 16.746 104.854 16.746C107.069 16.746 108.802 18.3502 108.802 20.9169C108.802 23.485 107.069 25.0906 104.854 25.0906C102.608 25.0906 100.874 23.4864 100.874 20.9183ZM119.918 28.7816H123.545C123.834 28.7816 124.027 28.5891 124.027 28.3004V14.9158L124.444 16.2969L129.193 28.3966C129.29 28.6533 129.514 28.7816 129.771 28.7816H132.981C133.237 28.7816 133.462 28.6533 133.56 28.3966L138.309 16.2969L138.727 14.9158V28.3004C138.727 28.5891 138.919 28.7816 139.208 28.7816H142.835C143.123 28.7816 143.316 28.5891 143.316 28.3004V6.79581C143.316 6.50706 143.123 6.31456 142.835 6.31456H138.629C138.372 6.31456 138.18 6.41081 138.083 6.6354L131.375 23.485L124.668 6.6354C124.572 6.41081 124.379 6.31456 124.123 6.31456H119.918C119.63 6.31456 119.437 6.50706 119.437 6.79581V28.3004C119.437 28.5891 119.63 28.7816 119.918 28.7816ZM153.26 29.1666C157.978 29.1666 161.477 25.5719 161.477 20.9183C161.477 16.2648 157.978 12.67 153.26 12.67C148.511 12.67 145.012 16.2648 145.012 20.9183C145.012 25.5719 148.511 29.1666 153.26 29.1666ZM149.279 20.9183C149.279 18.3516 151.015 16.746 153.26 16.746C155.476 16.746 157.208 18.3502 157.208 20.9169C157.208 23.485 155.476 25.0906 153.26 25.0906C151.015 25.0906 149.279 23.4864 149.279 20.9183ZM170.304 29.1666C175.023 29.1666 178.522 25.5719 178.522 20.9183C178.522 16.2648 175.022 12.67 170.304 12.67C165.554 12.67 162.056 16.2648 162.056 20.9183C162.056 25.5719 165.554 29.1666 170.304 29.1666ZM166.326 20.9183C166.326 18.3516 168.058 16.746 170.304 16.746C172.521 16.746 174.252 18.3502 174.252 20.9169C174.252 23.485 172.519 25.0906 170.305 25.0906C168.058 25.0906 166.326 23.4864 166.326 20.9183ZM180.384 28.7816H183.85C184.139 28.7816 184.332 28.5891 184.332 28.3004V20.1483C184.332 17.9331 185.552 16.746 187.413 16.746C189.307 16.746 190.334 17.9331 190.334 20.1483V28.3004C190.334 28.5891 190.527 28.7816 190.815 28.7816H194.25C194.538 28.7816 194.763 28.5891 194.763 28.3004V19.1523C194.763 15.0441 192.357 12.67 189.083 12.67C186.739 12.67 185.231 13.825 184.332 15.4291L184.203 13.5683C184.203 13.1833 184.011 13.055 183.722 13.055H180.384C180.095 13.055 179.903 13.2475 179.903 13.5362V28.3004C179.903 28.5891 180.095 28.7816 180.384 28.7816Z" fill="black"/>
</g>
<defs>
<clipPath id="clip0_42_752">
<rect width="35" height="35" fill="white"/>
</clipPath>
<clipPath id="clip1_42_752">
<rect width="148.75" height="23.3333" fill="white" transform="translate(46.6665 5.83331)"/>
</clipPath>
</defs>
</svg>
