<svg width="200" height="36" viewBox="0 0 200 36" fill="none" xmlns="http://www.w3.org/2000/svg">
<g clip-path="url(#clip0_42_754)">
<path d="M15.6982 0.816443C16.4255 0.420719 17.3149 0.395722 18.0635 0.742225L18.2109 0.816443L32.1748 8.40824C32.9477 8.82797 33.4092 9.59528 33.4092 10.4082V25.5918C33.4092 26.3531 33.0049 27.0749 32.3164 27.5088L32.1748 27.5918L18.2109 35.1836C17.4837 35.5794 16.5943 35.6043 15.8457 35.2578L15.6982 35.1836L1.73438 27.5918C0.961475 27.1719 0.5 26.4047 0.5 25.5918V10.4082L0.504883 10.2568C0.554567 9.55211 0.949956 8.89629 1.59277 8.49125L1.73438 8.40824L15.6982 0.816443Z" fill="black" fill-opacity="0.01"/>
<path d="M15.6982 0.816443C16.4255 0.420719 17.3149 0.395722 18.0635 0.742225L18.2109 0.816443L32.1748 8.40824C32.9477 8.82797 33.4092 9.59528 33.4092 10.4082V25.5918C33.4092 26.3531 33.0049 27.0749 32.3164 27.5088L32.1748 27.5918L18.2109 35.1836C17.4837 35.5794 16.5943 35.6043 15.8457 35.2578L15.6982 35.1836L1.73438 27.5918C0.961475 27.1719 0.5 26.4047 0.5 25.5918V10.4082L0.504883 10.2568C0.554567 9.55211 0.949956 8.89629 1.59277 8.49125L1.73438 8.40824L15.6982 0.816443Z" fill="url(#paint0_linear_42_754)" fill-opacity="0.2"/>
<path d="M15.6982 0.816443C16.4255 0.420719 17.3149 0.395722 18.0635 0.742225L18.2109 0.816443L32.1748 8.40824C32.9477 8.82797 33.4092 9.59528 33.4092 10.4082V25.5918C33.4092 26.3531 33.0049 27.0749 32.3164 27.5088L32.1748 27.5918L18.2109 35.1836C17.4837 35.5794 16.5943 35.6043 15.8457 35.2578L15.6982 35.1836L1.73438 27.5918C0.961475 27.1719 0.5 26.4047 0.5 25.5918V10.4082L0.504883 10.2568C0.554567 9.55211 0.949956 8.89629 1.59277 8.49125L1.73438 8.40824L15.6982 0.816443Z" stroke="url(#paint1_linear_42_754)"/>
<path d="M15.6982 0.816443C16.4255 0.420719 17.3149 0.395722 18.0635 0.742225L18.2109 0.816443L32.1748 8.40824C32.9477 8.82797 33.4092 9.59528 33.4092 10.4082V25.5918C33.4092 26.3531 33.0049 27.0749 32.3164 27.5088L32.1748 27.5918L18.2109 35.1836C17.4837 35.5794 16.5943 35.6043 15.8457 35.2578L15.6982 35.1836L1.73438 27.5918C0.961475 27.1719 0.5 26.4047 0.5 25.5918V10.4082L0.504883 10.2568C0.554567 9.55211 0.949956 8.89629 1.59277 8.49125L1.73438 8.40824L15.6982 0.816443Z" stroke="url(#paint2_linear_42_754)"/>
<path d="M15.6982 0.816443C16.4255 0.420719 17.3149 0.395722 18.0635 0.742225L18.2109 0.816443L32.1748 8.40824C32.9477 8.82797 33.4092 9.59528 33.4092 10.4082V25.5918C33.4092 26.3531 33.0049 27.0749 32.3164 27.5088L32.1748 27.5918L18.2109 35.1836C17.4837 35.5794 16.5943 35.6043 15.8457 35.2578L15.6982 35.1836L1.73438 27.5918C0.961475 27.1719 0.5 26.4047 0.5 25.5918V10.4082L0.504883 10.2568C0.554567 9.55211 0.949956 8.89629 1.59277 8.49125L1.73438 8.40824L15.6982 0.816443Z" stroke="url(#paint3_linear_42_754)"/>
<path fill-rule="evenodd" clip-rule="evenodd" d="M21.1267 13.7455L19.7467 12.3071H26.1087L19.4888 19.4561C18.8769 18.7651 18.2742 18.0842 17.6673 17.3986C18.8255 16.1755 19.972 14.9646 21.1267 13.7455ZM18.678 20.2504L13.0602 13.5838L14.3384 12.2788H7.97754L15.4381 20.2504V25.3852L16.9836 27.1157L18.678 25.3852V20.2504Z" fill="black"/>
<path d="M189.031 25.7867V10.2133H200V12.752H192.127V16.464H199.557V18.9173H192.127V23.248H200V25.7867H189.031Z" fill="black"/>
<path d="M179.553 26C177.784 26 176.266 25.6871 174.998 25.0613C173.73 24.4213 172.757 23.504 172.079 22.3093C171.416 21.1147 171.084 19.6782 171.084 18C171.084 16.3218 171.416 14.8853 172.079 13.6907C172.757 12.496 173.73 11.5858 174.998 10.96C176.266 10.32 177.784 10 179.553 10C181.573 10 183.364 10.4196 184.927 11.2587L184.22 13.8613C182.701 13.0365 181.19 12.624 179.686 12.624C178.565 12.624 177.599 12.8373 176.789 13.264C175.978 13.6907 175.359 14.3093 174.931 15.12C174.504 15.9165 174.29 16.8765 174.29 18C174.29 19.1093 174.504 20.0693 174.931 20.88C175.359 21.6907 175.978 22.3093 176.789 22.736C177.599 23.1627 178.565 23.376 179.686 23.376C181.16 23.376 182.671 22.9636 184.22 22.1387L184.927 24.7413C183.364 25.5804 181.573 26 179.553 26Z" fill="black"/>
<path d="M154.298 25.7867V10.2133H157.527L164.272 20.816H164.316V10.2133H167.412V25.7867H164.161L157.439 15.184H157.394V25.7867H154.298Z" fill="black"/>
<path d="M135.925 25.7867L141.497 10.2133H145.677L151.249 25.7867H147.843L143.598 12.752H143.554L139.33 25.7867H135.925ZM139.176 22.224V19.6213H148.02V22.224H139.176Z" fill="black"/>
<path d="M119.759 25.7867V10.2133H122.986L129.731 20.816H129.775V10.2133H132.872V25.7867H129.62L122.898 15.184H122.854V25.7867H119.759Z" fill="black"/>
<path d="M111.854 25.7867V10.2133H115.083V25.7867H111.854Z" fill="black"/>
<path d="M96.3848 25.7867V10.2133H107.729V12.816H99.4807V16.9333H107.287V19.472H99.4807V25.7867H96.3848Z" fill="black"/>
<path d="M81.3262 25.7867V10.2133H84.5549V25.7867H81.3262Z" fill="black"/>
<path d="M65.9858 25.7867V10.2133H76.9542V12.752H69.0818V16.464H76.512V18.9173H69.0818V23.248H76.9542V25.7867H65.9858Z" fill="black"/>
<path d="M53.9044 25.7867V20.112L48 10.2133H51.4718L55.4965 17.488H55.5408L59.5433 10.2133H63.0373L57.1329 20.112V25.7867H53.9044Z" fill="black"/>
</g>
<defs>
<linearGradient id="paint0_linear_42_754" x1="2.99649" y1="7.51442" x2="31.5616" y2="32.2395" gradientUnits="userSpaceOnUse">
<stop stop-opacity="0.6"/>
<stop offset="0.317067" stop-opacity="0"/>
<stop offset="0.671703"/>
<stop offset="0.865"/>
</linearGradient>
<linearGradient id="paint1_linear_42_754" x1="2.99649" y1="7.51442" x2="31.5616" y2="32.2395" gradientUnits="userSpaceOnUse">
<stop stop-opacity="0.6"/>
<stop offset="0.317067" stop-opacity="0"/>
<stop offset="0.671703"/>
<stop offset="0.865"/>
</linearGradient>
<linearGradient id="paint2_linear_42_754" x1="2.99649" y1="7.51442" x2="31.5616" y2="32.2395" gradientUnits="userSpaceOnUse">
<stop stop-opacity="0.6"/>
<stop offset="0.317067" stop-opacity="0"/>
<stop offset="0.671703"/>
<stop offset="0.865"/>
</linearGradient>
<linearGradient id="paint3_linear_42_754" x1="2.99649" y1="7.51442" x2="31.5616" y2="32.2395" gradientUnits="userSpaceOnUse">
<stop stop-opacity="0.6"/>
<stop offset="0.317067" stop-opacity="0"/>
<stop offset="0.671703"/>
<stop offset="0.865"/>
</linearGradient>
<clipPath id="clip0_42_754">
<rect width="200" height="36" fill="white"/>
</clipPath>
</defs>
</svg>
