<svg width="225" height="40" viewBox="0 0 225 40" fill="none" xmlns="http://www.w3.org/2000/svg">
<g clip-path="url(#clip0_42_771)">
<path d="M193.217 17.6494C193.217 12.3723 193.242 7.09363 193.196 1.81659C193.186 0.792417 193.48 0.483485 194.505 0.513706C196.889 0.585903 199.277 0.567434 201.662 0.518743C202.461 0.501954 202.954 0.7538 203.391 1.43043C206.95 6.92741 210.541 12.4026 214.123 17.8861C214.271 18.1111 214.391 18.3613 214.577 18.5493C214.7 18.6735 214.944 18.8011 215.078 18.7575C215.215 18.7122 215.343 18.4704 215.373 18.2975C215.425 18.0036 215.4 17.6947 215.4 17.3925C215.4 12.1826 215.423 6.97106 215.381 1.76119C215.373 0.775627 215.695 0.493559 216.656 0.518743C219.041 0.580866 221.429 0.579187 223.813 0.518743C224.766 0.495238 225 0.824318 224.999 1.73936C224.97 12.3958 224.97 23.0506 224.999 33.7071C225 34.5987 224.739 34.8656 223.855 34.8472C221.369 34.7951 218.88 34.8069 216.395 34.8421C215.676 34.8522 215.241 34.6171 214.839 34.0043C211.284 28.5846 207.694 23.1866 204.114 17.7837C203.965 17.5604 203.845 17.3052 203.652 17.1272C203.503 16.9878 203.265 16.8787 203.069 16.8838C202.975 16.8854 202.846 17.1759 202.811 17.3505C202.766 17.5772 202.798 17.8189 202.798 18.054C202.798 23.2639 202.779 28.4754 202.815 33.6853C202.82 34.555 202.585 34.869 201.681 34.8488C199.229 34.7951 196.773 34.7901 194.321 34.8505C193.397 34.874 193.196 34.5332 193.201 33.6853C193.231 28.3411 193.216 22.9952 193.216 17.651L193.217 17.6494Z" fill="black"/>
<path d="M171.79 0.000135694C182.12 0.0639369 189.531 7.93163 189.32 18.17C189.124 27.6831 181.503 35.2066 171.728 35.1983C161.63 35.1882 154.118 27.5606 154.16 17.3557C154.201 7.47159 161.828 -0.0368018 171.79 0.000135694ZM179.711 17.6378C179.523 16.4911 179.428 15.3796 179.152 14.3151C178.296 11.0176 175.567 8.9004 172.172 8.80974C168.275 8.70564 165.555 10.5273 164.444 13.9743C163.835 15.8698 163.774 17.7973 164.084 19.7483C164.682 23.521 167.322 25.9941 171.058 26.2829C174.924 26.5817 177.999 24.5837 179.09 20.9689C179.416 19.8876 179.513 18.7359 179.711 17.6378Z" fill="black"/>
<path d="M99.6405 12.9787C98.3978 12.9787 97.15 13.0324 95.9122 12.9502C95.4751 12.9216 94.8855 12.6798 94.6594 12.339C92.8019 9.5452 90.2159 8.49919 87.0017 9.20436C83.873 9.89107 82.322 12.1594 81.7057 15.1379C81.1731 17.7034 81.3506 20.2269 82.5666 22.5925C84.9433 27.2114 91.39 27.6328 94.3227 23.338C94.8687 22.5371 95.4684 22.2517 96.403 22.2719C98.7193 22.3239 101.039 22.2803 103.357 22.292C104.716 22.2987 105.158 22.9384 104.741 24.2379C102.796 30.3007 97.3208 34.5301 90.8691 34.9968C87.8174 35.2168 84.831 34.9968 81.9603 33.8669C77.6223 32.161 74.6007 29.107 72.9878 24.7534C71.2308 20.0103 71.2174 15.1916 73.0112 10.4636C75.7112 3.35144 82.2282 -0.100541 89.7385 0.223502C93.8638 0.401474 97.5754 1.66574 100.64 4.52673C102.624 6.37696 103.965 8.6419 104.781 11.2175C105.138 12.3457 104.672 12.9569 103.471 12.9737C102.195 12.9905 100.917 12.977 99.6405 12.977V12.9787Z" fill="black"/>
<path d="M52.8702 0.539245C54.3139 0.539245 55.7627 0.594651 57.2031 0.519097C58.1126 0.472085 58.5096 0.84314 58.8043 1.65912C62.0855 10.776 65.3984 19.8811 68.7014 28.9895C69.2624 30.5359 69.8336 32.0772 70.3846 33.6252C70.7615 34.683 70.6677 34.824 69.5941 34.8257C66.9745 34.8324 64.3533 34.8055 61.7337 34.8425C60.9633 34.8525 60.6099 34.5688 60.3704 33.8384C58.1193 26.9563 55.8331 20.0859 53.5569 13.2122C53.4832 12.9889 53.443 12.7488 53.3308 12.5473C53.2085 12.329 53.0226 12.146 52.8635 11.9479C52.6775 12.1494 52.3978 12.3206 52.3174 12.5591C51.4398 15.1279 50.5923 17.7068 49.7398 20.2824C48.2323 24.8374 46.7182 29.3891 45.2292 33.9492C45.0182 34.5957 44.6681 34.8475 43.9881 34.8408C41.3686 34.8139 38.7474 34.8341 36.1278 34.829C34.9755 34.8274 34.8967 34.7098 35.3037 33.5933C39.1376 23.0728 42.9748 12.5523 46.812 2.03186C47.1749 1.03678 47.8851 0.539245 48.9425 0.539245C50.2523 0.539245 51.5621 0.539245 52.8735 0.539245H52.8702Z" fill="black"/>
<path d="M121.775 0.539232C125.976 0.539232 130.178 0.567774 134.377 0.517405C135.335 0.505652 135.59 0.8213 135.56 1.72795C135.501 3.47409 135.488 5.22526 135.563 6.96972C135.606 7.97879 135.231 8.2172 134.288 8.19034C132.072 8.12822 129.851 8.21888 127.636 8.14837C126.641 8.11647 126.378 8.46066 126.383 9.41264C126.413 17.4466 126.4 25.4805 126.4 33.5127C126.4 34.388 125.957 34.8262 125.071 34.8273C122.718 34.8273 120.365 34.782 118.015 34.8492C117.045 34.8777 116.836 34.5201 116.839 33.6269C116.868 25.6937 116.854 17.7605 116.856 9.82902C116.856 7.97039 116.956 8.17355 115.147 8.17019C113.03 8.16683 110.912 8.14501 108.796 8.18195C108.051 8.19538 107.786 7.94857 107.801 7.19806C107.84 5.31593 107.847 3.43211 107.8 1.55166C107.78 0.728956 108.11 0.520763 108.872 0.5258C113.173 0.550984 117.476 0.537553 121.777 0.537553L121.775 0.539232Z" fill="black"/>
<path d="M140.684 17.6411C140.684 12.3002 140.701 6.9594 140.667 1.61856C140.662 0.78579 140.905 0.5054 141.747 0.52219C144.231 0.567523 146.718 0.564165 149.202 0.52219C149.99 0.508758 150.274 0.774037 150.273 1.5598C150.258 12.3086 150.258 23.0574 150.273 33.8063C150.273 34.587 150.013 34.8573 149.219 34.8439C146.769 34.8002 144.315 34.7918 141.865 34.8472C140.953 34.8674 140.652 34.6172 140.66 33.6636C140.706 28.3227 140.682 22.9819 140.682 17.6411H140.684Z" fill="black"/>
<path d="M0 0V40L11.046 28.9271V11.4171H23.7736L35.0491 0.114171L0 0Z" fill="black"/>
<path d="M15.8828 15.6801V30.393L30.4444 15.7943L15.8828 15.6801Z" fill="black"/>
</g>
<defs>
<clipPath id="clip0_42_771">
<rect width="225" height="40" fill="white"/>
</clipPath>
</defs>
</svg>
