<svg width="190" height="35" viewBox="0 0 190 35" fill="none" xmlns="http://www.w3.org/2000/svg">
<g clip-path="url(#clip0_42_780)">
<mask id="mask0_42_780" style="mask-type:luminance" maskUnits="userSpaceOnUse" x="0" y="0" width="190" height="35">
<path d="M189.355 0.833313H0V34.1666H189.355V0.833313Z" fill="white"/>
</mask>
<g mask="url(#mask0_42_780)">
<path d="M16.7553 3.33746C16.0401 4.00408 15.3371 4.65836 14.6342 5.30955C11.3691 8.34021 8.10403 11.374 4.83588 14.3985C4.08668 15.0929 3.30972 15.7595 2.36937 16.1669C1.25018 16.6514 0.60888 16.349 0.248152 15.1422C-0.254403 13.4541 0.0138311 11.8801 0.985025 10.4296C1.81132 9.1951 2.85342 8.1674 3.92327 7.16746C5.62825 5.57496 7.34557 3.99791 9.08447 2.44861C9.84602 1.76965 10.6785 1.14932 11.6959 0.942546C14.7421 0.328387 16.6845 3.24795 16.7585 3.33436L16.7553 3.33746Z" fill="black"/>
<path d="M2.09814 18.7561C3.95111 18.2221 5.34163 17.0463 6.69513 15.8088C11.0115 11.8707 15.3218 7.92963 19.6567 4.01321C20.6125 3.14908 21.6177 2.32196 22.6813 1.59979C24.0348 0.680098 25.5055 0.54739 26.9545 1.42388C27.4787 1.73868 27.9935 2.10593 28.419 2.54418C29.8958 4.07186 31.3542 5.62423 32.7755 7.20438C34.2863 8.88328 35.7723 10.5869 37.2183 12.3213C37.7147 12.917 38.1217 13.6114 38.4578 14.315C39.0837 15.6236 38.9233 16.9166 38.1618 18.1358C37.4803 19.2283 36.5678 20.1233 35.6275 20.972C31.9462 24.299 28.2648 27.626 24.5405 30.9065C23.5415 31.7891 22.4408 32.5793 21.3062 33.2768C19.1695 34.5946 17.0268 34.431 15.0782 32.8695C13.9436 31.962 12.8768 30.9466 11.9026 29.8665C8.76393 26.3883 5.68384 22.8608 2.58219 19.3486C2.42496 19.1728 2.28313 18.9815 2.09814 18.753V18.7561Z" fill="black"/>
<path d="M65.9572 1.52451H70.6375V26.8994H65.9572V24.7607C64.579 26.526 62.6182 27.4055 60.0807 27.4055C57.5433 27.4055 55.5517 26.4797 53.822 24.631C52.0923 22.7824 51.229 20.5172 51.229 17.8352C51.229 15.1533 52.0923 12.888 53.822 11.0393C55.5517 9.19069 57.6358 8.26482 60.0807 8.26482C62.5257 8.26482 64.579 9.14749 65.9572 10.9097V1.52142V1.52451ZM57.3398 21.517C58.2957 22.4707 59.498 22.949 60.9502 22.949C62.4023 22.949 63.5987 22.4707 64.542 21.517C65.4855 20.5634 65.9572 19.335 65.9572 17.8384C65.9572 16.3415 65.4855 15.1132 64.542 14.1595C63.5987 13.2059 62.4023 12.7275 60.9502 12.7275C59.498 12.7275 58.2957 13.2059 57.3398 14.1595C56.384 15.1132 55.9062 16.3415 55.9062 17.8384C55.9062 19.335 56.384 20.5634 57.3398 21.517Z" fill="black"/>
<path d="M86.2775 8.77399H91.2847L84.6714 26.9303C83.7279 29.5197 82.4792 31.3992 80.919 32.5718C79.362 33.7447 77.4229 34.2723 75.1042 34.149V29.8005C76.3622 29.8252 77.358 29.5597 78.098 29.0042C78.8349 28.4487 79.4237 27.5537 79.8585 26.3223L72.4219 8.77709H77.5369L82.2664 20.9583L86.2807 8.77709L86.2775 8.77399Z" fill="black"/>
<path d="M103.18 8.2648C105.163 8.2648 106.803 8.92835 108.095 10.2585C109.39 11.5887 110.034 13.425 110.034 15.7674V26.8963H105.354V16.3476C105.354 15.1409 105.027 14.215 104.373 13.5731C103.72 12.9343 102.85 12.6133 101.762 12.6133C100.553 12.6133 99.5853 12.9867 98.8608 13.7367C98.1363 14.4866 97.7725 15.61 97.7725 17.1068V26.8932H93.0923V8.76787H97.7725V10.7986C98.9101 9.10735 100.711 8.26172 103.177 8.26172L103.18 8.2648Z" fill="black"/>
<path d="M127.072 8.77419H131.752V26.8997H127.072V24.7608C125.669 26.5262 123.699 27.4057 121.159 27.4057C118.618 27.4057 116.666 26.4798 114.937 24.6312C113.207 22.7825 112.344 20.5173 112.344 17.8353C112.344 15.1534 113.207 12.8881 114.937 11.0395C116.666 9.19084 118.738 8.26495 121.159 8.26495C123.699 8.26495 125.669 9.14762 127.072 10.9099V8.7711V8.77419ZM118.436 21.5172C119.38 22.4708 120.576 22.9492 122.028 22.9492C123.48 22.9492 124.683 22.4708 125.638 21.5172C126.594 20.5635 127.072 19.3353 127.072 17.8385C127.072 16.3416 126.594 15.1133 125.638 14.1597C124.683 13.206 123.48 12.7276 122.028 12.7276C120.576 12.7276 119.38 13.206 118.436 14.1597C117.493 15.1133 117.021 16.3416 117.021 17.8385C117.021 19.3353 117.493 20.5635 118.436 21.5172Z" fill="black"/>
<path d="M154.774 8.26495C156.855 8.26495 158.517 8.94084 159.762 10.2957C161.008 11.6506 161.631 13.4622 161.631 15.7336V26.8997H156.95V16.0608C156.95 14.9744 156.685 14.1288 156.152 13.5239C155.618 12.919 154.869 12.6165 153.901 12.6165C152.837 12.6165 152.008 12.9684 151.416 13.6689C150.824 14.3695 150.528 15.3849 150.528 16.715V26.9027H145.848V16.0639C145.848 14.9775 145.583 14.1319 145.049 13.527C144.516 12.9221 143.767 12.6196 142.799 12.6196C141.76 12.6196 140.93 12.9715 140.314 13.672C139.697 14.3726 139.389 15.388 139.389 16.7182V26.9058H134.708V8.78035H139.389V10.7031C140.477 9.0828 142.157 8.27422 144.433 8.27422C146.708 8.27422 148.302 9.14454 149.366 10.8852C150.574 9.14454 152.378 8.27422 154.77 8.27422L154.774 8.26495Z" fill="black"/>
<path d="M166.922 6.59838C166.148 6.59838 165.476 6.31445 164.908 5.74658C164.341 5.17871 164.054 4.509 164.054 3.73436C164.054 2.95971 164.338 2.28383 164.908 1.70363C165.476 1.12342 166.148 0.833313 166.922 0.833313C167.695 0.833313 168.402 1.12342 168.972 1.70363C169.54 2.28383 169.823 2.95971 169.823 3.73436C169.823 4.509 169.54 5.17871 168.972 5.74658C168.405 6.31445 167.72 6.59838 166.922 6.59838ZM164.6 26.8995V8.77416H169.28V26.8995H164.6Z" fill="black"/>
<path d="M181.153 27.4057C178.418 27.4057 176.14 26.4892 174.315 24.6497C172.49 22.8135 171.576 20.542 171.576 17.8353C171.576 15.1287 172.49 12.8573 174.315 11.021C176.14 9.18465 178.421 8.26495 181.153 8.26495C182.92 8.26495 184.526 8.68777 185.978 9.5334C187.43 10.379 188.531 11.5148 189.28 12.9406L185.253 15.2954C184.89 14.5454 184.341 13.9529 183.605 13.5177C182.868 13.0826 182.038 12.8665 181.12 12.8665C179.716 12.8665 178.555 13.3325 177.635 14.2615C176.716 15.1935 176.256 16.3817 176.256 17.8323C176.256 19.2828 176.716 20.437 177.635 21.366C178.555 22.298 179.716 22.761 181.12 22.761C182.063 22.761 182.901 22.5512 183.641 22.1252C184.378 21.7023 184.93 21.116 185.291 20.366L189.355 22.6868C188.556 24.1127 187.43 25.2547 185.981 26.1127C184.53 26.9705 182.923 27.3995 181.156 27.3995L181.153 27.4057Z" fill="black"/>
</g>
</g>
<defs>
<clipPath id="clip0_42_780">
<rect width="190" height="35" fill="white"/>
</clipPath>
</defs>
</svg>
