<svg width="256" height="96" viewBox="0 0 256 96" fill="none" xmlns="http://www.w3.org/2000/svg">
<g clip-path="url(#clip0_3191_7325)">
<path fill-rule="evenodd" clip-rule="evenodd" d="M47.4637 95.0858C61.5999 95.0858 74.3002 88.9583 83.0358 79.2231C78.9722 75.7035 72.8482 75.4897 68.522 78.9685L67.6955 79.6332C59.7744 86.0029 48.2324 85.0622 41.455 77.4946C37.7586 73.3671 31.4281 72.9458 27.2136 76.5466L17.6845 84.6879C25.8461 91.1949 36.1989 95.0858 47.4637 95.0858ZM62.9314 72.0639C70.4761 65.9967 81.0809 66.2144 88.3372 72.0742C92.6745 64.9123 95.1699 56.5181 95.1699 47.5428C95.1699 37.5699 92.0889 28.3143 86.8233 20.6697C83.429 19.9493 79.7497 20.7907 76.9568 23.2572L76.1619 23.9592C68.5441 30.6866 56.971 30.2777 49.8503 23.0299C45.9666 19.0769 39.6234 18.9471 35.5802 22.7379L24.4912 33.1346L18.3908 26.6727L29.48 16.2759C37.0538 9.17494 48.9365 9.4181 56.2115 16.823C60.0127 20.6922 66.1909 20.9104 70.2575 17.3191L71.0523 16.6171C73.5207 14.4371 76.3768 12.9675 79.367 12.1946C70.9152 4.61362 59.7301 0 47.4637 0C23.2461 0 3.24332 17.9834 0.167536 41.2811C7.52337 37.7634 16.5967 39.117 22.5944 45.2378C26.3807 49.1019 32.4773 49.5097 36.7479 46.1847L42.9481 41.3575C50.74 35.2908 61.7551 35.5844 69.2105 42.0579L81.2815 52.5384L75.4333 59.2278L63.3625 48.7471C59.1231 45.0663 52.8598 44.8992 48.4287 48.349L42.2288 53.1761C34.3825 59.285 23.1813 58.5357 16.225 51.4363C12.1798 47.3081 5.56388 47.164 1.34169 51.1124L0 52.3669C1.00409 62.297 5.07433 71.3251 11.2529 78.4968L21.4192 69.8109C29.3139 63.0658 41.1726 63.8553 48.097 71.5869C51.715 75.6268 57.8763 76.1289 62.1049 72.7285L62.9314 72.0639Z" fill="#9E1F19"/>
<path d="M129.533 62.7909C129.533 72.7388 137.369 79.2639 149.712 79.2639C162.164 79.2639 170.75 72.9528 170.75 63.0047C170.75 55.1959 166.349 51.1312 157.441 48.9918L148.21 46.7453C143.057 45.4618 140.482 43.1085 140.482 39.5786C140.482 34.7649 144.023 31.9838 150.356 31.9838C156.475 31.9838 160.017 35.2997 160.232 40.5412H169.893C169.677 30.5931 162.164 24.175 150.678 24.175C139.085 24.175 130.929 30.2721 130.929 39.8993C130.929 47.6012 135.33 52.2009 144.667 54.4471L153.899 56.5865C159.373 57.9772 161.09 60.1165 161.09 63.6466C161.09 68.4601 157.011 71.3483 149.927 71.3483C143.272 71.3483 139.194 68.1392 139.194 62.7909H129.533Z" fill="#9E1F19"/>
<path d="M206.732 79.2639C219.721 79.2639 228.522 72.9528 231.098 61.7212H221.653C219.936 67.7112 214.784 70.9203 206.947 70.9203C196.964 70.9203 191.169 64.823 190.418 53.8054L230.991 53.6983V49.9545C230.991 34.444 221.224 24.175 206.304 24.175C191.062 24.175 180.65 35.5137 180.65 51.88C180.65 68.1392 191.277 79.2639 206.732 79.2639ZM206.304 32.6255C215.213 32.6255 220.902 38.4019 220.902 47.0663H190.633C191.921 37.867 197.502 32.6255 206.304 32.6255Z" fill="#9E1F19"/>
<path d="M249.345 13.2642C252.994 13.2642 256 10.269 256 6.63207C256 2.88817 252.994 0 249.345 0C245.695 0 242.689 2.88817 242.689 6.63207C242.689 10.269 245.695 13.2642 249.345 13.2642ZM244.408 77.9803H254.497V25.6725H244.408V77.9803Z" fill="#9E1F19"/>
</g>
<defs>
<clipPath id="clip0_3191_7325">
<rect width="256" height="96" fill="white"/>
</clipPath>
</defs>
</svg>
