<svg width="219" height="219" viewBox="0 0 219 219" fill="none" xmlns="http://www.w3.org/2000/svg">
<path d="M109.5 0C169.975 0 219 49.0248 219 109.5C219 169.975 169.975 219 109.5 219C49.0248 219 0 169.975 0 109.5C0 49.0248 49.0248 0 109.5 0ZM127.449 82.8896L76.1112 82.8902C73.547 82.8902 71.5747 83.4819 70.1939 84.6654C68.9117 85.8489 68.2702 87.3775 68.2702 89.2513C68.2702 93.1965 70.4895 95.8102 74.9278 97.0924C81.4374 98.9664 86.3694 100.594 89.7228 101.975C93.1748 103.356 96.183 105.131 98.7474 107.301C101.706 109.865 103.925 113.071 105.405 116.918C106.884 120.666 107.625 124.71 107.625 129.049C107.624 135.164 106.243 140.638 103.482 145.471C100.72 150.206 96.9227 153.904 92.0898 156.567C87.3555 159.23 82.1277 160.562 76.4071 160.562H44.2722C59.4356 179.905 83.0162 192.334 109.5 192.334C115.669 192.334 121.68 191.658 127.464 190.379L127.686 82.8492H127.449V82.8896ZM152.837 82.8492L152.636 180.229C176.444 165.678 192.334 139.445 192.334 109.5C192.334 100.176 190.793 91.2126 187.953 82.8492H152.837ZM109.5 26.6658C63.7519 26.6658 26.6658 63.7519 26.6658 109.5C26.6658 118.824 28.2065 127.787 31.0468 136.151H73.4484C76.4071 136.151 78.6266 135.559 80.106 134.376C81.684 133.093 82.4734 131.515 82.4735 129.641C82.4735 127.767 81.7826 126.189 80.4019 124.907C79.1198 123.526 77.4924 122.491 75.5201 121.8C67.7282 119.236 62.2534 117.263 59.0972 115.882C56.0397 114.501 53.3766 112.627 51.1082 110.26C45.7821 104.835 43.1192 97.7829 43.1192 89.1034C43.1192 81.4102 45.1412 74.9005 49.185 69.5744C53.3275 64.1498 58.8508 60.7473 65.7547 59.3664C67.7274 58.9719 69.9964 58.7248 72.5608 58.6262C75.2238 58.5276 78.1334 58.4783 81.2895 58.4783L104.755 58.4777V58.4378H174.728C159.564 39.0949 135.984 26.6658 109.5 26.6658Z" fill="#BA333A"/>
</svg>
