<svg width="239" height="239" viewBox="0 0 239 239" fill="none" xmlns="http://www.w3.org/2000/svg">
<g filter="url(#filter0_g_26_464)">
<path d="M119.5 10C179.975 10 229 59.0248 229 119.5C229 179.975 179.975 229 119.5 229C59.0248 229 10 179.975 10 119.5C10 59.0248 59.0248 10 119.5 10ZM137.449 92.8896L86.1112 92.8902C83.547 92.8902 81.5747 93.4819 80.1939 94.6654C78.9117 95.8489 78.2702 97.3775 78.2702 99.2513C78.2702 103.196 80.4895 105.81 84.9278 107.092C91.4374 108.966 96.3693 110.594 99.7228 111.975C103.175 113.356 106.183 115.131 108.747 117.301C111.706 119.865 113.925 123.071 115.405 126.918C116.884 130.666 117.625 134.71 117.625 139.049C117.624 145.164 116.243 150.638 113.482 155.471C110.72 160.206 106.923 163.904 102.09 166.567C97.3555 169.23 92.1277 170.562 86.4071 170.562H54.2722C69.4356 189.905 93.0162 202.334 119.5 202.334C125.669 202.334 131.68 201.658 137.464 200.379L137.686 92.8492H137.449V92.8896ZM162.837 92.8492L162.636 190.229C186.444 175.678 202.334 149.445 202.334 119.5C202.334 110.176 200.793 101.213 197.953 92.8492H162.837ZM119.5 36.6658C73.7519 36.6658 36.6658 73.7519 36.6658 119.5C36.6658 128.824 38.2065 137.787 41.0468 146.151H83.4484C86.4071 146.151 88.6266 145.559 90.106 144.376C91.684 143.093 92.4734 141.515 92.4735 139.641C92.4735 137.767 91.7826 136.189 90.4019 134.907C89.1198 133.526 87.4924 132.491 85.52 131.8C77.7282 129.236 72.2534 127.263 69.0972 125.882C66.0397 124.501 63.3766 122.627 61.1082 120.26C55.7821 114.835 53.1192 107.783 53.1192 99.1034C53.1192 91.4102 55.1412 84.9005 59.185 79.5744C63.3275 74.1498 68.8508 70.7473 75.7547 69.3664C77.7274 68.9719 79.9964 68.7248 82.5608 68.6262C85.2238 68.5276 88.1334 68.4783 91.2895 68.4783L114.755 68.4777V68.4378H184.728C169.564 49.0949 145.984 36.6658 119.5 36.6658Z" fill="black"/>
</g>
<defs>
<filter id="filter0_g_26_464" x="0" y="0" width="239" height="239" filterUnits="userSpaceOnUse" color-interpolation-filters="sRGB">
<feFlood flood-opacity="0" result="BackgroundImageFix"/>
<feBlend mode="normal" in="SourceGraphic" in2="BackgroundImageFix" result="shape"/>
<feTurbulence type="fractalNoise" baseFrequency="2 2" numOctaves="3" seed="1176" />
<feDisplacementMap in="shape" scale="20" xChannelSelector="R" yChannelSelector="G" result="displacedImage" width="100%" height="100%" />
<feMerge result="effect1_texture_26_464">
<feMergeNode in="displacedImage"/>
</feMerge>
</filter>
</defs>
</svg>
