<svg width="404" height="404" viewBox="0 0 404 404" fill="none" xmlns="http://www.w3.org/2000/svg">
<path d="M202 0C313.562 0 404 90.4385 404 202C404 313.562 313.562 404 202 404C90.4385 404 0 313.562 0 202C0 90.4385 90.4385 0 202 0ZM235.111 152.911L140.406 152.912C135.676 152.912 132.037 154.003 129.49 156.186C127.125 158.37 125.941 161.189 125.941 164.646C125.941 171.924 130.035 176.746 138.223 179.111C150.232 182.568 159.33 185.571 165.516 188.118C171.884 190.665 177.433 193.941 182.164 197.943C187.623 202.674 191.716 208.588 194.446 215.684C197.175 222.598 198.54 230.058 198.54 238.064C198.54 249.344 195.992 259.443 190.898 268.358C185.803 277.091 178.798 283.915 169.883 288.828C161.149 293.74 151.505 296.197 140.952 296.197H81.671C109.644 331.88 153.144 354.808 202 354.808C213.38 354.808 224.468 353.562 235.139 351.202L235.549 152.836H235.111V152.911ZM281.947 152.836L281.576 332.476C325.495 305.633 354.808 257.241 354.808 202C354.808 184.8 351.966 168.264 346.727 152.836H281.947ZM202 49.1917C117.606 49.1917 49.1917 117.606 49.1917 202C49.1917 219.2 52.034 235.736 57.2735 251.164H135.494C140.952 251.164 145.046 250.072 147.775 247.889C150.686 245.524 152.143 242.612 152.143 239.155C152.143 235.699 150.868 232.787 148.321 230.422C145.956 227.875 142.954 225.964 139.316 224.691C124.941 219.96 114.842 216.321 109.019 213.774C103.379 211.226 98.4665 207.769 94.2817 203.402C84.4565 193.395 79.5441 180.385 79.544 164.373C79.5441 150.181 83.2741 138.173 90.734 128.347C98.3758 118.34 108.565 112.064 121.301 109.516C124.94 108.788 129.126 108.333 133.856 108.151C138.769 107.969 144.136 107.878 149.959 107.878L193.247 107.877V107.803H322.329C294.356 72.1202 250.856 49.1917 202 49.1917Z" fill="#9E1F19"/>
</svg>
